<svg xmlns="http://www.w3.org/2000/svg" xmlns:xlink="http://www.w3.org/1999/xlink" viewBox="0 0 531 175.15"><defs><linearGradient id="a" x1="-698.4" y1="374.9" x2="-697.43" y2="374.9" gradientTransform="translate(-73152.06 85669.54) rotate(158.84) scale(142.34)" gradientUnits="userSpaceOnUse"><stop offset="0"/><stop offset="0.44"/><stop offset="1" stop-color="#fff"/></linearGradient><linearGradient id="b" x1="-700.2" y1="372.59" x2="-699.23" y2="372.59" gradientTransform="translate(-48593.95 56233.77) rotate(158.99) scale(93.86)" xlink:href="#a"/><linearGradient id="c" x1="-721.25" y1="351.63" x2="-720.29" y2="351.63" gradientTransform="matrix(-20.07, 5.17, -5.17, -20.07, -12162.57, 10894.89)" xlink:href="#a"/><linearGradient id="d" x1="-718.64" y1="354.08" x2="-717.68" y2="354.08" gradientTransform="translate(-13384.05 12142.71) rotate(165.26) scale(22.92)" xlink:href="#a"/><linearGradient id="e" x1="-767.39" y1="317.78" x2="-766.44" y2="317.78" gradientTransform="matrix(-8.33, 1.26, -1.26, -8.33, -5716.3, 3708.99)" xlink:href="#a"/><linearGradient id="f" x1="-767.33" y1="317.79" x2="-766.37" y2="317.79" gradientTransform="matrix(-8.33, 1.26, -1.26, -8.33, -5704.47, 3705.02)" xlink:href="#a"/><linearGradient id="g" x1="-768.31" y1="317.62" x2="-767.36" y2="317.62" gradientTransform="matrix(-8.33, 1.26, -1.26, -8.33, -5881.5, 3698.09)" xlink:href="#a"/><linearGradient id="h" x1="-766.33" y1="317.94" x2="-765.38" y2="317.94" gradientTransform="matrix(-8.33, 1.26, -1.26, -8.33, -5526.16, 3670.72)" xlink:href="#a"/><linearGradient id="i" x1="-790.09" y1="297.4" x2="-789.14" y2="297.4" gradientTransform="translate(-4188.68 2653.96) rotate(171.39) scale(6.32)" xlink:href="#a"/><linearGradient id="j" x1="-697.83" y1="375.58" x2="-696.86" y2="375.58" gradientTransform="translate(-85082.54 99638.87) rotate(158.99) scale(165.86)" xlink:href="#a"/><linearGradient id="k" x1="-699.76" y1="373.18" x2="-698.79" y2="373.18" gradientTransform="matrix(-96.17, 36.94, -36.94, -96.17, -53340.87, 61799.28)" xlink:href="#a"/><linearGradient id="l" x1="-699.31" y1="373.6" x2="-698.35" y2="373.6" gradientTransform="translate(-56031.54 65492.35) rotate(158.99) scale(109.13)" xlink:href="#a"/><linearGradient id="m" x1="-698.61" y1="374.54" x2="-697.64" y2="374.54" gradientTransform="translate(-67002.63 78388.38) rotate(158.99) scale(130.51)" xlink:href="#a"/><linearGradient id="n" x1="-713.88" y1="361.07" x2="-712.92" y2="361.07" gradientTransform="translate(-18886.75 15782.55) rotate(167.17) scale(30.77)" xlink:href="#a"/><linearGradient id="o" x1="-713.38" y1="361.19" x2="-712.42" y2="361.19" gradientTransform="translate(-18550.53 15788.73) rotate(167.17) scale(30.77)" xlink:href="#a"/><linearGradient id="p" x1="-713.39" y1="361.19" x2="-712.43" y2="361.19" gradientTransform="translate(-18557.52 15803.73) rotate(167.17) scale(30.77)" xlink:href="#a"/><linearGradient id="q" x1="-713.36" y1="361.19" x2="-712.4" y2="361.19" gradientTransform="translate(-18541.79 15815.75) rotate(167.17) scale(30.77)" xlink:href="#a"/><linearGradient id="r" x1="-717.91" y1="355.36" x2="-716.95" y2="355.36" gradientTransform="translate(-14461.68 12836.7) rotate(165.26) scale(24.26)" xlink:href="#a"/><clipPath id="s"><path d="M310.63,54.52c-37,11.18-70,14.43-101.49,10.88v54.52H531l0-91.8s-14.81-3-43-3c-37.09,0-97.33,5.22-177.4,29.45" fill="none"/></clipPath><linearGradient id="t" x1="-697.51" y1="383.42" x2="-696.51" y2="383.42" gradientTransform="translate(-64193.57 -117334.47) rotate(-90) scale(168.39)" gradientUnits="userSpaceOnUse"><stop offset="0" stop-color="#2a9f97"/><stop offset="1" stop-color="#36656c"/></linearGradient><clipPath id="u"><path d="M310.63,76.36c-37,11.18-70,14.44-101.49,10.88v54.52H531l0-91.84s-14.81-3-43-3c-37.09,0-97.34,5.23-177.41,29.45" fill="none"/></clipPath><linearGradient id="v" x1="-696.94" y1="382.51" x2="-695.94" y2="382.51" gradientTransform="translate(-82901.34 -151551.88) rotate(-90) scale(217.7)" xlink:href="#t"/><clipPath id="w"><path d="M310.63,98.2c-37,11.19-70,14.44-101.49,10.88V163.6H531l0-91.83s-14.81-3-43-3C451,68.77,390.7,74,310.63,98.21" fill="none"/></clipPath><linearGradient id="x" x1="-696.65" y1="382.04" x2="-695.65" y2="382.04" gradientTransform="translate(-97455.64 -178149.77) rotate(-90) scale(256.06)" xlink:href="#t"/><clipPath id="y"><path d="M0,45.9.08,190.84H531v-86c-51.89,5.61-106.45.47-167.43-17.18C231.46,49.4,132.06,41.12,70.88,41.12,24.44,41.12,0,45.9,0,45.9" fill="none"/></clipPath><linearGradient id="z" x1="-696.94" y1="382.67" x2="-696.04" y2="382.67" gradientTransform="translate(-79516.95 -145109.29) rotate(-90) scale(208.49)" gradientUnits="userSpaceOnUse"><stop offset="0" stop-color="#2a9f97"/><stop offset="1" stop-color="#83d8b3"/></linearGradient><clipPath id="aa"><path d="M377.6,119.53c-1.3,17.92-7.68,28.58-6,52.76h23.1c-6.43-25.26-7.8-31.82-6.51-49.75,1.36-18.27-11.3-31.42-11.3-31.42L368.84,89a46.59,46.59,0,0,1,8.76,30.56" fill="none"/></clipPath><linearGradient id="ab" x1="-692.64" y1="375.62" x2="-691.64" y2="375.62" gradientTransform="translate(67662.75 124156.81) rotate(90) scale(179.12)" gradientUnits="userSpaceOnUse"><stop offset="0" stop-color="#f6f2e3"/><stop offset="0.44" stop-color="#eee6ca"/><stop offset="1" stop-color="#eee6ca"/></linearGradient><clipPath id="ac"><rect x="160.64" y="60.16" width="29.99" height="9.28" fill="none"/></clipPath><clipPath id="ad"><path d="M160.88,69.44l11.35-3.9s13.81.24,17.77-3-11.9-3.7-18.72,1.8L160.64,68.4Z" fill="none"/></clipPath><mask id="ae" x="156.84" y="46.49" width="40" height="34" maskUnits="userSpaceOnUse"><polygon points="156.84 59.62 189.14 46.49 196.84 67.36 164.53 80.49 156.84 59.62" fill="url(#a)"/></mask><linearGradient id="af" x1="-698.4" y1="374.9" x2="-697.43" y2="374.9" gradientTransform="translate(-73152.06 85669.54) rotate(158.84) scale(142.34)" gradientUnits="userSpaceOnUse"><stop offset="0" stop-color="#fff"/><stop offset="0.44" stop-color="#fff"/><stop offset="1"/></linearGradient><clipPath id="ag"><rect x="160.89" y="54.82" width="8.05" height="7.79" fill="none"/></clipPath><clipPath id="ah"><rect x="152.94" y="54.82" width="8.05" height="7.79" fill="none"/></clipPath><clipPath id="ai"><rect x="160.89" y="47.24" width="8.05" height="7.79" fill="none"/></clipPath><clipPath id="aj"><rect x="152.94" y="47.24" width="8.05" height="7.79" fill="none"/></clipPath><clipPath id="ak"><rect x="160.89" y="39.65" width="8.05" height="7.79" fill="none"/></clipPath><clipPath id="al"><rect x="152.94" y="39.65" width="8.05" height="7.79" fill="none"/></clipPath><clipPath id="am"><rect x="160.89" y="32.06" width="8.05" height="7.79" fill="none"/></clipPath><clipPath id="an"><rect x="160.93" y="22.77" width="2.47" height="10.92" fill="none"/></clipPath><clipPath id="ao"><rect x="152.94" y="32.06" width="8.05" height="7.79" fill="none"/></clipPath><clipPath id="ap"><rect x="173.63" y="145.32" width="3.65" height="3.52" fill="none"/></clipPath><clipPath id="aq"><rect x="173.63" y="145.36" width="3.61" height="3.49" fill="none"/></clipPath><clipPath id="ar"><rect x="496.56" y="147.61" width="3.65" height="3.52" fill="none"/></clipPath><clipPath id="as"><rect x="496.56" y="147.64" width="3.61" height="3.49" fill="none"/></clipPath><clipPath id="at"><rect x="215.73" y="170.06" width="4.62" height="4.46" fill="none"/></clipPath><clipPath id="au"><rect x="215.73" y="170.11" width="4.56" height="4.41" fill="none"/></clipPath><clipPath id="av"><rect x="335.79" y="135.25" width="4.62" height="4.46" fill="none"/></clipPath><clipPath id="aw"><rect x="335.79" y="135.29" width="4.56" height="4.41" fill="none"/></clipPath><clipPath id="ax"><rect x="23.89" y="100.06" width="2.51" height="4.65" fill="none"/></clipPath><clipPath id="ay"><rect x="23.89" y="100.06" width="2.36" height="4.63" fill="none"/></clipPath><clipPath id="az"><rect x="244.49" y="72.33" width="4.11" height="4.37" fill="none"/></clipPath><clipPath id="ba"><rect x="244.49" y="72.33" width="4.08" height="4.31" fill="none"/></clipPath><clipPath id="bb"><rect x="127.68" y="140.57" width="4.11" height="4.37" fill="none"/></clipPath><clipPath id="bc"><rect x="127.68" y="140.57" width="4.08" height="4.3" fill="none"/></clipPath><clipPath id="bd"><rect x="266.18" y="73.55" width="2.78" height="3.13" fill="none"/></clipPath><clipPath id="be"><rect x="266.18" y="73.58" width="2.72" height="3.11" fill="none"/></clipPath><clipPath id="bf"><rect x="300.34" y="153.62" width="2.79" height="3.13" fill="none"/></clipPath><clipPath id="bg"><rect x="300.34" y="153.65" width="2.72" height="3.11" fill="none"/></clipPath><clipPath id="bh"><rect x="228.96" y="89.98" width="1.75" height="4.18" fill="none"/></clipPath><clipPath id="bi"><rect x="228.96" y="89.98" width="1.12" height="4.18" fill="none"/></clipPath><clipPath id="bj"><rect x="510.58" y="123.63" width="4.11" height="4.37" fill="none"/></clipPath><clipPath id="bk"><rect x="510.58" y="123.63" width="4.08" height="4.3" fill="none"/></clipPath><clipPath id="bl"><rect x="134.31" y="50.36" width="19.73" height="6.1" fill="none"/></clipPath><clipPath id="bm"><path d="M134.47,56.46l7.45-2.56s9.09.15,11.7-2-7.83-2.43-12.32,1.18l-7,2.7Z" fill="none"/></clipPath><mask id="bn" x="132.09" y="41.79" width="26.36" height="22.37" maskUnits="userSpaceOnUse"><polygon points="132.09 50.39 153.41 41.79 158.45 55.56 137.13 64.16 132.09 50.39" fill="url(#b)"/></mask><linearGradient id="bo" x1="-700.2" y1="372.59" x2="-699.23" y2="372.59" gradientTransform="translate(-48593.95 56233.77) rotate(158.99) scale(93.86)" xlink:href="#af"/><clipPath id="bp"><rect x="134.47" y="46.85" width="5.3" height="5.12" fill="none"/></clipPath><clipPath id="bq"><rect x="129.25" y="46.85" width="5.3" height="5.12" fill="none"/></clipPath><clipPath id="br"><rect x="134.47" y="41.86" width="5.3" height="5.12" fill="none"/></clipPath><clipPath id="bs"><rect x="129.25" y="41.86" width="5.3" height="5.12" fill="none"/></clipPath><clipPath id="bt"><rect x="134.47" y="36.87" width="5.3" height="5.12" fill="none"/></clipPath><clipPath id="bu"><rect x="129.25" y="36.87" width="5.3" height="5.12" fill="none"/></clipPath><clipPath id="bv"><rect x="134.47" y="31.88" width="5.3" height="5.12" fill="none"/></clipPath><clipPath id="bw"><rect x="134.51" y="25.77" width="1.62" height="7.18" fill="none"/></clipPath><clipPath id="bx"><rect x="129.25" y="31.88" width="5.3" height="5.12" fill="none"/></clipPath><clipPath id="by"><rect x="78.72" y="92.3" width="21.65" height="6.7" fill="none"/></clipPath><clipPath id="bz"><path d="M78.89,99l8.2-2.82s10,.17,12.83-2.15-8.58-2.68-13.52,1.29l-7.68,2.93Z" fill="none"/></clipPath><mask id="ca" x="76.29" y="82.89" width="28.93" height="24.55" maskUnits="userSpaceOnUse"><polygon points="76.29 92.33 99.69 82.89 105.22 98.01 81.82 107.44 76.29 92.33" fill="url(#k)"/></mask><linearGradient id="cb" x1="-699.76" y1="373.18" x2="-698.79" y2="373.18" gradientTransform="matrix(-96.17, 36.94, -36.94, -96.17, -53340.87, 61799.28)" xlink:href="#af"/><clipPath id="cc"><rect x="78.9" y="88.45" width="5.81" height="5.62" fill="none"/></clipPath><clipPath id="cd"><rect x="73.16" y="88.45" width="5.81" height="5.62" fill="none"/></clipPath><clipPath id="ce"><rect x="78.9" y="82.97" width="5.81" height="5.62" fill="none"/></clipPath><clipPath id="cf"><rect x="73.16" y="82.97" width="5.81" height="5.62" fill="none"/></clipPath><clipPath id="cg"><rect x="78.9" y="77.49" width="5.81" height="5.62" fill="none"/></clipPath><clipPath id="ch"><rect x="73.16" y="77.49" width="5.81" height="5.62" fill="none"/></clipPath><clipPath id="ci"><rect x="78.9" y="72.02" width="5.81" height="5.62" fill="none"/></clipPath><clipPath id="cj"><rect x="78.93" y="65.31" width="1.78" height="7.88" fill="none"/></clipPath><clipPath id="ck"><rect x="73.16" y="72.02" width="5.81" height="5.62" fill="none"/></clipPath><clipPath id="cl"><rect x="494.61" y="100.67" width="22.94" height="7.1" fill="none"/></clipPath><clipPath id="cm"><path d="M494.8,107.76l8.68-3s10.56.18,13.59-2.29-9.1-2.83-14.28,1.37L494.65,107Z" fill="none"/></clipPath><mask id="cn" x="492.04" y="90.71" width="30.66" height="26.01" maskUnits="userSpaceOnUse"><polygon points="492.04 100.71 516.84 90.71 522.7 106.72 497.9 116.72 492.04 100.71" fill="url(#l)"/></mask><linearGradient id="co" x1="-699.31" y1="373.6" x2="-698.35" y2="373.6" gradientTransform="translate(-56031.54 65492.35) rotate(158.99) scale(109.13)" xlink:href="#af"/><clipPath id="cp"><rect x="494.8" y="96.58" width="6.15" height="5.95" fill="none"/></clipPath><clipPath id="cq"><rect x="488.73" y="96.58" width="6.15" height="5.95" fill="none"/></clipPath><clipPath id="cr"><rect x="494.8" y="90.78" width="6.15" height="5.95" fill="none"/></clipPath><clipPath id="cs"><rect x="488.73" y="90.78" width="6.15" height="5.95" fill="none"/></clipPath><clipPath id="ct"><rect x="494.8" y="84.98" width="6.15" height="5.96" fill="none"/></clipPath><clipPath id="cu"><rect x="488.73" y="84.98" width="6.15" height="5.96" fill="none"/></clipPath><clipPath id="cv"><rect x="494.8" y="79.18" width="6.15" height="5.95" fill="none"/></clipPath><clipPath id="cw"><rect x="494.84" y="72.08" width="1.89" height="8.35" fill="none"/></clipPath><clipPath id="cx"><rect x="488.73" y="79.18" width="6.15" height="5.95" fill="none"/></clipPath><clipPath id="cy"><rect x="467.79" y="103.03" width="27.43" height="8.49" fill="none"/></clipPath><clipPath id="cz"><path d="M468,111.51l10.38-3.57s12.63.22,16.26-2.73-10.88-3.38-17.14,1.64l-9.73,3.72Z" fill="none"/></clipPath><mask id="da" x="464.7" y="91.11" width="36.66" height="31.11" maskUnits="userSpaceOnUse"><polygon points="464.7 103.06 494.35 91.11 501.36 110.26 471.71 122.22 464.7 103.06" fill="url(#m)"/></mask><linearGradient id="db" x1="-698.61" y1="374.54" x2="-697.64" y2="374.54" gradientTransform="translate(-67002.63 78388.38) rotate(158.99) scale(130.51)" xlink:href="#af"/><clipPath id="dc"><rect x="468.01" y="98.14" width="7.36" height="7.12" fill="none"/></clipPath><clipPath id="dd"><rect x="460.74" y="98.14" width="7.36" height="7.12" fill="none"/></clipPath><clipPath id="de"><rect x="468.01" y="91.21" width="7.36" height="7.12" fill="none"/></clipPath><clipPath id="df"><rect x="460.74" y="91.21" width="7.36" height="7.12" fill="none"/></clipPath><clipPath id="dg"><rect x="468.01" y="84.27" width="7.36" height="7.12" fill="none"/></clipPath><clipPath id="dh"><rect x="460.74" y="84.27" width="7.36" height="7.12" fill="none"/></clipPath><clipPath id="di"><rect x="468.01" y="77.33" width="7.36" height="7.12" fill="none"/></clipPath><clipPath id="dj"><rect x="468.06" y="68.83" width="2.26" height="9.99" fill="none"/></clipPath><clipPath id="dk"><rect x="460.74" y="77.33" width="7.36" height="7.12" fill="none"/></clipPath><clipPath id="dl"><rect x="33.18" y="77.1" width="9.37" height="3.93" fill="none"/></clipPath><clipPath id="dm"><path d="M34.58,81s8.64-.14,7.93-2.89S29,78.67,34.58,81" fill="none"/></clipPath><mask id="dn" x="27.85" y="72.17" width="16.54" height="12.1" maskUnits="userSpaceOnUse"><polygon points="27.85 75.67 42.52 72.17 44.38 80.76 29.71 84.27 27.85 75.67" fill="url(#n)"/></mask><linearGradient id="do" x1="-713.88" y1="361.07" x2="-712.92" y2="361.07" gradientTransform="translate(-18886.75 15782.55) rotate(167.17) scale(30.77)" xlink:href="#af"/><clipPath id="dp"><rect x="31.13" y="65.32" width="7.22" height="15.75" fill="none"/></clipPath><clipPath id="dq"><rect x="353.43" y="83.24" width="9.37" height="3.93" fill="none"/></clipPath><clipPath id="dr"><path d="M354.82,87.17s8.65-.13,7.94-2.88-13.5.52-7.94,2.88" fill="none"/></clipPath><mask id="ds" x="348.09" y="78.31" width="16.54" height="12.1" maskUnits="userSpaceOnUse"><polygon points="348.1 81.82 362.77 78.31 364.63 86.9 349.96 90.41 348.1 81.82" fill="url(#o)"/></mask><linearGradient id="dt" x1="-713.38" y1="361.19" x2="-712.42" y2="361.19" gradientTransform="translate(-18550.53 15788.73) rotate(167.17) scale(30.77)" xlink:href="#af"/><clipPath id="du"><rect x="351.37" y="71.46" width="7.22" height="15.75" fill="none"/></clipPath><clipPath id="dv"><rect x="346.76" y="98.24" width="9.37" height="3.93" fill="none"/></clipPath><clipPath id="dw"><path d="M348.15,102.17s8.66-.13,7.94-2.88-13.49.52-7.94,2.88" fill="none"/></clipPath><mask id="dx" x="341.43" y="93.31" width="16.54" height="12.1" maskUnits="userSpaceOnUse"><polygon points="341.43 96.82 356.11 93.31 357.97 101.9 343.3 105.41 341.43 96.82" fill="url(#p)"/></mask><linearGradient id="dy" x1="-713.39" y1="361.19" x2="-712.43" y2="361.19" gradientTransform="translate(-18557.52 15803.73) rotate(167.17) scale(30.77)" xlink:href="#af"/><clipPath id="dz"><rect x="344.7" y="86.46" width="7.22" height="15.75" fill="none"/></clipPath><clipPath id="ea"><rect x="361.73" y="110.26" width="9.37" height="3.93" fill="none"/></clipPath><clipPath id="eb"><path d="M363.13,114.19s8.65-.14,7.94-2.89-13.5.53-7.94,2.89" fill="none"/></clipPath><mask id="ec" x="356.41" y="105.34" width="16.54" height="12.1" maskUnits="userSpaceOnUse"><polygon points="356.41 108.85 371.09 105.34 372.95 113.93 358.28 117.44 356.41 108.85" fill="url(#q)"/></mask><linearGradient id="ed" x1="-713.36" y1="361.19" x2="-712.4" y2="361.19" gradientTransform="translate(-18541.79 15815.75) rotate(167.17) scale(30.77)" xlink:href="#af"/><clipPath id="ee"><rect x="359.68" y="98.48" width="7.22" height="15.75" fill="none"/></clipPath><clipPath id="ef"><rect x="146.7" y="72.83" width="30.98" height="3.91" fill="none"/></clipPath><clipPath id="eg"><polygon points="146.7 76.74 168.46 76.74 177.68 72.83 154.54 72.83 146.7 76.74" fill="none"/></clipPath><mask id="eh" x="145.79" y="64.83" width="32.8" height="19.92" maskUnits="userSpaceOnUse"><polygon points="145.79 73.08 175.67 64.83 178.59 76.49 148.71 84.75 145.79 73.08" fill="url(#r)"/></mask><linearGradient id="ei" x1="-717.91" y1="355.36" x2="-716.95" y2="355.36" gradientTransform="translate(-14461.68 12836.7) rotate(165.26) scale(24.26)" xlink:href="#af"/><clipPath id="ej"><rect x="457.41" y="108.72" width="26.41" height="3.33" fill="none"/></clipPath><clipPath id="ek"><polygon points="457.41 112.06 475.96 112.06 483.82 108.72 464.1 108.72 457.41 112.06" fill="none"/></clipPath><mask id="el" x="457.33" y="104.62" width="28" height="16.89" maskUnits="userSpaceOnUse"><polygon points="457.33 111.53 482.88 104.62 485.33 114.59 459.78 121.5 457.33 111.53" fill="url(#c)"/></mask><linearGradient id="em" x1="-721.25" y1="351.63" x2="-720.29" y2="351.63" gradientTransform="matrix(-20.07, 5.17, -5.17, -20.07, -12162.57, 10894.89)" xlink:href="#af"/><clipPath id="en"><rect x="440.97" y="108.02" width="29.27" height="3.7" fill="none"/></clipPath><clipPath id="eo"><polygon points="440.97 111.71 461.53 111.71 470.24 108.02 448.38 108.02 440.97 111.71" fill="none"/></clipPath><mask id="ep" x="440.1" y="100.49" width="30.99" height="18.81" maskUnits="userSpaceOnUse"><polygon points="440.1 108.28 468.34 100.49 471.1 111.5 442.87 119.3 440.1 108.28" fill="url(#d)"/></mask><linearGradient id="eq" x1="-718.64" y1="354.08" x2="-717.68" y2="354.08" gradientTransform="translate(-13384.05 12142.71) rotate(165.26) scale(22.92)" xlink:href="#af"/><clipPath id="er"><rect x="269.39" y="92.15" width="4.59" height="1.58" fill="none"/></clipPath><clipPath id="es"><path d="M274,92.94c0,.43-1,.79-2.3.79s-2.29-.36-2.29-.79,1-.79,2.29-.79,2.3.35,2.3.79" fill="none"/></clipPath><mask id="et" x="269.17" y="91.41" width="5.03" height="3" maskUnits="userSpaceOnUse"><polygon points="269.17 92.16 273.88 91.42 274.21 93.67 269.5 94.42 269.17 92.16" fill="url(#e)"/></mask><linearGradient id="eu" x1="-767.39" y1="317.78" x2="-766.44" y2="317.78" gradientTransform="matrix(-8.33, 1.26, -1.26, -8.33, -5716.3, 3708.99)" xlink:href="#af"/><clipPath id="ev"><rect x="280.65" y="88.17" width="4.59" height="1.58" fill="none"/></clipPath><clipPath id="ew"><path d="M285.25,89c0,.43-1,.79-2.29.79s-2.31-.36-2.31-.79,1-.79,2.31-.79,2.29.35,2.29.79" fill="none"/></clipPath><mask id="ex" x="280.44" y="87.44" width="5.03" height="3" maskUnits="userSpaceOnUse"><polygon points="280.44 88.19 285.15 87.44 285.48 89.69 280.77 90.44 280.44 88.19" fill="url(#f)"/></mask><linearGradient id="ey" x1="-767.33" y1="317.79" x2="-766.37" y2="317.79" gradientTransform="matrix(-8.33, 1.26, -1.26, -8.33, -5704.47, 3705.02)" xlink:href="#af"/><clipPath id="ez"><rect x="112.06" y="81.38" width="4.59" height="1.58" fill="none"/></clipPath><clipPath id="fa"><path d="M116.66,82.17c0,.44-1,.79-2.29.79s-2.31-.35-2.31-.79,1-.79,2.31-.79,2.29.36,2.29.79" fill="none"/></clipPath><mask id="fb" x="111.85" y="80.66" width="5.03" height="3" maskUnits="userSpaceOnUse"><polygon points="111.85 81.41 116.56 80.66 116.88 82.92 112.17 83.67 111.85 81.41" fill="url(#g)"/></mask><linearGradient id="fc" x1="-768.31" y1="317.62" x2="-767.36" y2="317.62" gradientTransform="matrix(-8.33, 1.26, -1.26, -8.33, -5881.5, 3698.08)" xlink:href="#af"/><clipPath id="fd"><rect x="450.51" y="53.88" width="4.59" height="1.58" fill="none"/></clipPath><clipPath id="fe"><path d="M455.1,54.67c0,.44-1,.79-2.29.79s-2.28-.34-2.28-.79,1-.79,2.3-.79,2.29.36,2.29.79" fill="none"/></clipPath><mask id="ff" x="450.29" y="53.14" width="5.03" height="3" maskUnits="userSpaceOnUse"><polygon points="450.29 53.89 455 53.14 455.32 55.39 450.61 56.14 450.29 53.89" fill="url(#h)"/></mask><linearGradient id="fg" x1="-766.33" y1="317.94" x2="-765.38" y2="317.94" gradientTransform="matrix(-8.33, 1.26, -1.26, -8.33, -5526.16, 3670.72)" xlink:href="#af"/><clipPath id="fh"><rect x="459.95" y="48.3" width="3.45" height="1.18" fill="none"/></clipPath><clipPath id="fi"><path d="M463.4,48.9c0,.32-.77.59-1.72.59S460,49.22,460,48.9s.77-.6,1.73-.6,1.72.27,1.72.6" fill="none"/></clipPath><mask id="fj" x="459.78" y="47.74" width="3.78" height="2.25" maskUnits="userSpaceOnUse"><polygon points="459.78 48.3 463.31 47.74 463.56 49.43 460.02 49.99 459.78 48.3" fill="url(#i)"/></mask><linearGradient id="fk" x1="-790.09" y1="297.4" x2="-789.14" y2="297.4" gradientTransform="translate(-4188.68 2653.96) rotate(171.39) scale(6.32)" xlink:href="#af"/><clipPath id="fl"><rect x="481.15" y="35.35" width="34.19" height="11.46" fill="none"/></clipPath><clipPath id="fm"><path d="M484.93,46.7l13.33-4.51s11.15-.07,16.09-4.16-9.89-3.86-18.37,3l-14.82,5.73Z" fill="none"/></clipPath><mask id="fn" x="477.04" y="20.56" width="46.32" height="39.64" maskUnits="userSpaceOnUse"><polygon points="477.05 35.62 514.37 20.57 523.37 45.15 486.04 60.2 477.05 35.62" fill="url(#j)"/></mask><linearGradient id="fo" x1="-697.83" y1="375.58" x2="-696.86" y2="375.58" gradientTransform="translate(-85082.54 99638.87) rotate(158.99) scale(165.86)" xlink:href="#af"/></defs><title>bg_obj_common_bottom</title><g clip-path="url(#s)"><rect x="209.14" y="25.07" width="321.86" height="94.85" fill="url(#t)"/></g><g clip-path="url(#u)"><rect x="209.14" y="46.91" width="321.86" height="94.85" fill="url(#v)"/></g><g clip-path="url(#w)"><rect x="209.14" y="68.75" width="321.86" height="94.85" fill="url(#x)"/></g><g clip-path="url(#y)"><rect y="41.15" width="530.99" height="134" fill="url(#z)"/></g><g clip-path="url(#aa)"><rect x="368.84" y="88.97" width="25.88" height="83.32" fill="url(#ab)"/></g><g opacity="0.2"><g clip-path="url(#ac)"><g clip-path="url(#ad)"><g mask="url(#ae)"><polygon points="156.84 59.62 189.14 46.49 196.84 67.36 164.53 80.49 156.84 59.62" fill="url(#af)"/></g></g></g></g><rect x="160.61" y="31.87" width="0.35" height="37.63" fill="#825529"/><polygon points="161.23 69.5 160.88 69.44 160.88 31.82 161.23 31.41 161.23 69.5" fill="#724318"/><path d="M168.86,54.8s-.79,8.1-8,7.72v-.05c-.4-7,8-7.72,8-7.72" fill="#10663b"/><g opacity="0.5"><g clip-path="url(#ag)"><path d="M168.94,54.87h-.05l-8,7.72h0c7.21.38,8-7.73,8-7.73" fill="#054723"/></g></g><path d="M153,54.8s.79,8.1,8,7.72l.06-.05c.4-7-8-7.72-8-7.72" fill="#10663b"/><g opacity="0.5"><g clip-path="url(#ah)"><path d="M152.93,54.87H153l8,7.72h-.06c-7.2.38-8-7.73-8-7.73" fill="#054723"/></g></g><path d="M168.86,47.21s-.79,8.11-8,7.73v-.06c-.4-7,8-7.72,8-7.72" fill="#24963d"/><g opacity="0.5"><g clip-path="url(#ai)"><path d="M168.94,47.29h-.05l-8,7.72h0c7.21.38,8-7.72,8-7.72" fill="#054723"/></g></g><path d="M153,47.21s.79,8.11,8,7.73l.06-.06c.4-7-8-7.72-8-7.72" fill="#24963d"/><g opacity="0.5"><g clip-path="url(#aj)"><path d="M152.93,47.29H153L161,55h-.05c-7.21.38-8-7.72-8-7.72" fill="#054723"/></g></g><path d="M168.86,39.62s-.79,8.11-8,7.73h0c-.4-7,8-7.73,8-7.73" fill="#10663b"/><g opacity="0.5"><g clip-path="url(#ak)"><path d="M168.94,39.7h-.05l-8,7.72h0l0,.06c7.21.38,8-7.73,8-7.73" fill="#054723"/></g></g><path d="M153,39.62s.79,8.11,8,7.73h.06c.4-7-8-7.73-8-7.73" fill="#10663b"/><g opacity="0.5"><g clip-path="url(#al)"><path d="M152.93,39.7H153l8,7.67h0l-.05.06c-7.21.38-8-7.73-8-7.73" fill="#054723"/></g></g><path d="M168.86,32s-.79,8.11-8,7.72h0c-.4-7,8-7.72,8-7.72" fill="#24963d"/><g opacity="0.5"><g clip-path="url(#am)"><path d="M168.94,32.12h-.05l-8,7.72h0c7.21.38,8-7.73,8-7.73" fill="#054723"/></g></g><path d="M160.9,22.77s5.38,6.27,0,10.92h-.08c-5.37-4.65,0-10.92,0-10.92" fill="#10663b"/><g opacity="0.5"><g clip-path="url(#an)"><path d="M161,22.77h0V33.69h0c5.37-4.65,0-10.92,0-10.92" fill="#054723"/></g></g><path d="M153,32s.79,8.11,8,7.72h.06c.4-7-8-7.72-8-7.72" fill="#24963d"/><g opacity="0.5"><g clip-path="url(#ao)"><path d="M152.93,32.12H153l8,7.66h-.05c-7.21.38-8-7.73-8-7.73" fill="#054723"/></g></g><g opacity="0.6"><g clip-path="url(#ap)"><path d="M173.67,145.35s.35,3.63,3.58,3.46h0c.18-3.11-3.58-3.46-3.58-3.46" fill="#10663b"/><g opacity="0.5"><g clip-path="url(#aq)"><path d="M173.63,145.38h0l3.58,3.46h0c-3.23.17-3.58-3.46-3.58-3.46" fill="#054723"/></g></g></g></g><g opacity="0.6"><g clip-path="url(#ar)"><path d="M496.59,147.63s.36,3.63,3.59,3.46h0c.18-3.12-3.58-3.46-3.58-3.46" fill="#10663b"/><g opacity="0.5"><g clip-path="url(#as)"><path d="M496.56,147.67h0l3.6,3.45h0c-3.23.17-3.58-3.46-3.58-3.46" fill="#054723"/></g></g></g></g><g opacity="0.6"><g clip-path="url(#at)"><path d="M215.77,170.12s.46,4.6,4.53,4.38h0c.23-3.94-4.53-4.38-4.53-4.38" fill="#10663b"/><g opacity="0.5"><g clip-path="url(#au)"><path d="M215.73,170.12h0l4.54,4.37h0c-4.09.22-4.54-4.37-4.54-4.37" fill="#054723"/></g></g></g></g><g opacity="0.6"><g clip-path="url(#av)"><path d="M335.82,135.28s.46,4.59,4.54,4.38h0c.23-3.95-4.53-4.38-4.53-4.38" fill="#10663b"/><g opacity="0.5"><g clip-path="url(#aw)"><path d="M335.79,135.32h0l4.53,4.38h0c-4.09.22-4.53-4.38-4.53-4.38" fill="#054723"/></g></g></g></g><g opacity="0.6"><g clip-path="url(#ax)"><path d="M26.26,100.12s-3.2,1.42-2.1,4.61h0c2.85-.73,2.1-4.61,2.1-4.61" fill="#10663b"/><g opacity="0.5"><g clip-path="url(#ay)"><path d="M26.22,100.06h0l-2.1,4.6h0c-1.11-3.19,2.1-4.61,2.1-4.61" fill="#054723"/></g></g></g></g><g opacity="0.5"><g clip-path="url(#az)"><path d="M248.6,72.38s-4.09.27-4,4.28h0c3.5.36,4.06-4.28,4.06-4.28" fill="#24963d"/><g opacity="0.5"><g clip-path="url(#ba)"><path d="M248.54,72.34h0l-4.06,4.27h0c0-4,4.05-4.27,4.05-4.27" fill="#054723"/></g></g></g></g><g opacity="0.5"><g clip-path="url(#bb)"><path d="M131.78,140.61s-4.1.27-4.06,4.27h0c3.49.36,4.05-4.28,4.05-4.28" fill="#24963d"/><g opacity="0.5"><g clip-path="url(#bc)"><path d="M131.74,140.57h0l-4.05,4.27h0c0-4,4.06-4.27,4.06-4.27" fill="#054723"/></g></g></g></g><g opacity="0.5"><g clip-path="url(#bd)"><path d="M266.21,73.57s.05,3,2.71,3.09h0c.35-2.54-2.71-3.09-2.71-3.09" fill="#24963d"/><g opacity="0.5"><g clip-path="url(#be)"><path d="M266.18,73.59h0l2.7,3.09h0c-2.66-.1-2.71-3.1-2.71-3.1" fill="#054723"/></g></g></g></g><g opacity="0.5"><g clip-path="url(#bf)"><path d="M300.37,153.64s.06,3,2.71,3.09h0c.35-2.54-2.71-3.1-2.71-3.1" fill="#24963d"/><g opacity="0.5"><g clip-path="url(#bg)"><path d="M300.34,153.67h0l2.71,3.09h0c-2.66-.09-2.71-3.09-2.71-3.09" fill="#054723"/></g></g></g></g><g opacity="0.5"><g clip-path="url(#bh)"><path d="M230.11,90s-2.14,2-.47,4.17h0c2.06-1.38.47-4.17.47-4.17" fill="#24963d"/><g opacity="0.5"><g clip-path="url(#bi)"><path d="M230.07,90h0l-.47,4.17h0c-1.67-2.17.47-4.17.47-4.17" fill="#054723"/></g></g></g></g><g opacity="0.5"><g clip-path="url(#bj)"><path d="M514.66,123.68s-4.09.27-4,4.27h0c3.49.37,4-4.27,4-4.27" fill="#24963d"/><g opacity="0.5"><g clip-path="url(#bk)"><path d="M514.63,123.63h0l-4.06,4.27h0c0-4,4.05-4.28,4.05-4.28" fill="#054723"/></g></g></g></g><g opacity="0.2"><g clip-path="url(#bl)"><g clip-path="url(#bm)"><g mask="url(#bn)"><polygon points="132.09 50.39 153.41 41.79 158.45 55.56 137.13 64.16 132.09 50.39" fill="url(#bo)"/></g></g></g></g><rect x="134.29" y="31.75" width="0.23" height="24.74" fill="#825529"/><polygon points="134.7 56.5 134.47 56.46 134.47 31.72 134.7 31.45 134.7 56.5" fill="#724318"/><path d="M139.72,46.83s-.52,5.33-5.26,5.08h0c-.25-4.58,5.26-5.08,5.26-5.08" fill="#10663b"/><g opacity="0.5"><g clip-path="url(#bp)"><path d="M139.77,46.88h0L134.51,52h0c4.76.25,5.26-5.08,5.26-5.08" fill="#054723"/></g></g><path d="M129.3,46.83s.53,5.33,5.26,5.08h0c.26-4.58-5.26-5.08-5.26-5.08" fill="#10663b"/><g opacity="0.5"><g clip-path="url(#bq)"><path d="M129.25,46.88h0L134.51,52h0c-4.76.25-5.26-5.08-5.26-5.08" fill="#054723"/></g></g><path d="M139.72,41.84s-.52,5.33-5.26,5.08h0c-.25-4.58,5.26-5.08,5.26-5.08" fill="#24963d"/><g opacity="0.5"><g clip-path="url(#br)"><path d="M139.77,41.89h0L134.51,47h0c4.76.25,5.26-5.08,5.26-5.08" fill="#054723"/></g></g><path d="M129.3,41.84s.53,5.33,5.26,5.08h0c.26-4.58-5.26-5.08-5.26-5.08" fill="#24963d"/><g opacity="0.5"><g clip-path="url(#bs)"><path d="M129.25,41.89h0L134.51,47h0c-4.76.25-5.26-5.08-5.26-5.08" fill="#054723"/></g></g><path d="M139.72,36.85s-.52,5.33-5.26,5.08h0c-.25-4.58,5.26-5.08,5.26-5.08" fill="#10663b"/><g opacity="0.5"><g clip-path="url(#bt)"><path d="M139.77,36.9h0L134.51,42h0c4.76.25,5.26-5.08,5.26-5.08" fill="#054723"/></g></g><path d="M129.3,36.85s.53,5.33,5.26,5.08h0c.26-4.58-5.26-5.08-5.26-5.08" fill="#10663b"/><g opacity="0.5"><g clip-path="url(#bu)"><path d="M129.25,36.9h0L134.51,42h0c-4.76.25-5.26-5.08-5.26-5.08" fill="#054723"/></g></g><path d="M139.72,31.86s-.52,5.34-5.26,5.08h0c-.25-4.58,5.26-5.08,5.26-5.08" fill="#24963d"/><g opacity="0.5"><g clip-path="url(#bv)"><path d="M139.77,31.91h0L134.51,37h0c4.76.26,5.26-5.08,5.26-5.08" fill="#054723"/></g></g><path d="M134.48,25.77s3.54,4.12,0,7.18h0c-3.54-3.06,0-7.18,0-7.18" fill="#10663b"/><g opacity="0.5"><g clip-path="url(#bw)"><path d="M134.56,25.77h-.05V33h.05c3.53-3.06,0-7.18,0-7.18" fill="#054723"/></g></g><path d="M129.3,31.86s.53,5.34,5.26,5.08h0c.26-4.58-5.26-5.08-5.26-5.08" fill="#24963d"/><g opacity="0.5"><g clip-path="url(#bx)"><path d="M129.25,31.91h0L134.51,37h0c-4.76.26-5.26-5.08-5.26-5.08" fill="#054723"/></g></g><g opacity="0.2"><g clip-path="url(#by)"><g clip-path="url(#bz)"><g mask="url(#ca)"><polygon points="76.29 92.33 99.69 82.89 105.22 98.01 81.82 107.44 76.29 92.33" fill="url(#cb)"/></g></g></g></g><rect x="78.7" y="71.88" width="0.26" height="27.16" fill="#825529"/><polygon points="79.14 99.04 78.89 99 78.89 71.84 79.14 71.55 79.14 99.04" fill="#724318"/><path d="M84.65,88.43s-.57,5.85-5.77,5.57h0c-.29-5,5.77-5.58,5.77-5.58" fill="#10663b"/><g opacity="0.5"><g clip-path="url(#cc)"><path d="M84.71,88.48h0l-5.78,5.57h0c5.2.27,5.78-5.58,5.78-5.58" fill="#054723"/></g></g><path d="M73.22,88.43S73.79,94.28,79,94h0c.29-5-5.77-5.58-5.77-5.58" fill="#10663b"/><g opacity="0.5"><g clip-path="url(#cd)"><path d="M73.16,88.48h0l5.77,5.57h0c-5.2.27-5.77-5.58-5.77-5.58" fill="#054723"/></g></g><path d="M84.65,83s-.57,5.85-5.77,5.58h0c-.29-5,5.77-5.58,5.77-5.58" fill="#24963d"/><g opacity="0.5"><g clip-path="url(#ce)"><path d="M84.71,83h0l-5.78,5.57h0c5.2.28,5.78-5.57,5.78-5.57" fill="#054723"/></g></g><path d="M73.22,83s.57,5.85,5.77,5.58h0c.29-5-5.77-5.58-5.77-5.58" fill="#24963d"/><g opacity="0.5"><g clip-path="url(#cf)"><path d="M73.16,83h0l5.77,5.57h0c-5.2.28-5.77-5.57-5.77-5.57" fill="#054723"/></g></g><path d="M84.65,77.48s-.57,5.85-5.77,5.57h0c-.29-5,5.77-5.57,5.77-5.57" fill="#10663b"/><g opacity="0.5"><g clip-path="url(#cg)"><path d="M84.71,77.53h0L78.9,83.12h0c5.2.27,5.77-5.58,5.77-5.58" fill="#054723"/></g></g><path d="M73.22,77.48s.57,5.85,5.77,5.57h0c.29-5-5.77-5.57-5.77-5.57" fill="#10663b"/><g opacity="0.5"><g clip-path="url(#ch)"><path d="M73.16,77.53h0L79,83.12h0c-5.2.27-5.77-5.58-5.77-5.58" fill="#054723"/></g></g><path d="M84.65,72s-.57,5.85-5.77,5.58h0c-.29-5,5.77-5.58,5.77-5.58" fill="#24963d"/><g opacity="0.5"><g clip-path="url(#ci)"><path d="M84.71,72.06h0l-5.78,5.57h0c5.2.28,5.78-5.57,5.78-5.57" fill="#054723"/></g></g><path d="M78.91,65.31s3.88,4.53,0,7.89h0c-3.89-3.36,0-7.89,0-7.89" fill="#10663b"/><g opacity="0.5"><g clip-path="url(#cj)"><path d="M79,65.31h-.06v7.88H79c3.88-3.36,0-7.89,0-7.89" fill="#054723"/></g></g><path d="M73.22,72s.57,5.85,5.77,5.58h0c.29-5-5.77-5.58-5.77-5.58" fill="#24963d"/><g opacity="0.5"><g clip-path="url(#ck)"><path d="M73.16,72.06h0l5.77,5.57h0c-5.2.28-5.77-5.57-5.77-5.57" fill="#054723"/></g></g><g opacity="0.2"><g clip-path="url(#cl)"><g clip-path="url(#cm)"><g mask="url(#cn)"><polygon points="492.04 100.71 516.84 90.71 522.7 106.72 497.9 116.72 492.04 100.71" fill="url(#co)"/></g></g></g></g><rect x="494.6" y="79.03" width="0.27" height="28.77" fill="#825529"/><polygon points="495.06 107.8 494.8 107.76 494.8 78.99 495.06 78.68 495.06 107.8" fill="#724318"/><path d="M500.9,96.56s-.61,6.2-6.11,5.91h0c-.31-5.32,6.11-5.91,6.11-5.91" fill="#10663b"/><g opacity="0.5"><g clip-path="url(#cp)"><path d="M501,96.62h0l-6.12,5.91h0c5.52.29,6.12-5.91,6.12-5.91" fill="#054723"/></g></g><path d="M488.79,96.56s.6,6.2,6.12,5.91h0c.3-5.32-6.12-5.91-6.12-5.91" fill="#10663b"/><g opacity="0.5"><g clip-path="url(#cq)"><path d="M488.73,96.62h0l6.1,5.91h0c-5.5.29-6.11-5.91-6.11-5.91" fill="#054723"/></g></g><path d="M500.9,90.76s-.61,6.2-6.11,5.91h0c-.31-5.32,6.11-5.91,6.11-5.91" fill="#24963d"/><g opacity="0.5"><g clip-path="url(#cr)"><path d="M501,90.82h0l-6.12,5.91h0c5.52.29,6.12-5.91,6.12-5.91" fill="#054723"/></g></g><path d="M488.79,90.76s.6,6.2,6.12,5.91h0c.3-5.32-6.12-5.91-6.12-5.91" fill="#24963d"/><g opacity="0.5"><g clip-path="url(#cs)"><path d="M488.73,90.82h0l6.1,5.91h0c-5.5.29-6.11-5.91-6.11-5.91" fill="#054723"/></g></g><path d="M500.9,85s-.61,6.2-6.11,5.91h0c-.31-5.32,6.11-5.91,6.11-5.91" fill="#10663b"/><g opacity="0.5"><g clip-path="url(#ct)"><path d="M501,85h0l-6.12,5.9h0C500.36,91.21,501,85,501,85" fill="#054723"/></g></g><path d="M488.79,85s.6,6.2,6.12,5.91h0c.3-5.32-6.12-5.91-6.12-5.91" fill="#10663b"/><g opacity="0.5"><g clip-path="url(#cu)"><path d="M488.73,85h0l6.1,5.9h0c-5.5.29-6.11-5.91-6.11-5.91" fill="#054723"/></g></g><path d="M500.9,79.12s-.61,6.2-6.11,5.91h0c-.31-5.32,6.11-5.91,6.11-5.91" fill="#24963d"/><g opacity="0.5"><g clip-path="url(#cv)"><path d="M501,79.22h0l-6.12,5.9h0c5.52.29,6.12-5.91,6.12-5.91" fill="#054723"/></g></g><path d="M494.81,72.12s4.12,4.79,0,8.35h-.05c-4.11-3.56,0-8.35,0-8.35" fill="#10663b"/><g opacity="0.5"><g clip-path="url(#cw)"><path d="M494.9,72.12h-.06v8.35h.06c4.12-3.56,0-8.35,0-8.35" fill="#054723"/></g></g><path d="M488.79,79.12s.6,6.2,6.12,5.91h0c.3-5.32-6.12-5.91-6.12-5.91" fill="#24963d"/><g opacity="0.5"><g clip-path="url(#cx)"><path d="M488.73,79.22h0l6.1,5.9h0c-5.5.29-6.11-5.91-6.11-5.91" fill="#054723"/></g></g><g opacity="0.2"><g clip-path="url(#cy)"><g clip-path="url(#cz)"><g mask="url(#da)"><polygon points="464.7 103.06 494.35 91.11 501.36 110.26 471.71 122.22 464.7 103.06" fill="url(#db)"/></g></g></g></g><rect x="467.76" y="77.15" width="0.32" height="34.41" fill="#825529"/><polygon points="468.32 111.56 468 111.51 468 77.11 468.32 76.74 468.32 111.56" fill="#724318"/><path d="M475.3,98.12s-.73,7.41-7.32,7.06h-.05c-.35-6.41,7.37-7.06,7.37-7.06" fill="#10663b"/><g opacity="0.5"><g clip-path="url(#dc)"><path d="M475.37,98.19h0L468,105.25h0c6.59.35,7.32-7.06,7.32-7.06" fill="#054723"/></g></g><path d="M460.82,98.12s.72,7.41,7.31,7.06h0c.37-6.37-7.31-7.07-7.31-7.07" fill="#10663b"/><g opacity="0.5"><g clip-path="url(#dd)"><path d="M460.74,98.19h0l7.31,7.06H468c-6.59.35-7.31-7.06-7.31-7.06" fill="#054723"/></g></g><path d="M475.3,91.18s-.73,7.42-7.32,7.07h-.05c-.35-6.41,7.37-7.13,7.37-7.13" fill="#24963d"/><g opacity="0.5"><g clip-path="url(#de)"><path d="M475.37,91.25h0l-7.32,7h0c6.59.35,7.32-7.07,7.32-7.07" fill="#054723"/></g></g><path d="M460.82,91.18s.72,7.42,7.31,7.07h0c.37-6.36-7.31-7.06-7.31-7.06" fill="#24963d"/><g opacity="0.5"><g clip-path="url(#df)"><path d="M460.74,91.25h0l7.31,7H468c-6.59.35-7.31-7.07-7.31-7.07" fill="#054723"/></g></g><path d="M475.3,84.25s-.73,7.41-7.32,7.06l-.05,0c-.36-6.36,7.31-7.06,7.31-7.06" fill="#10663b"/><g opacity="0.5"><g clip-path="url(#dg)"><path d="M475.37,84.32h0L468,91.38h0c6.59.35,7.32-7.06,7.32-7.06" fill="#054723"/></g></g><path d="M460.82,84.25s.72,7.41,7.31,7.06v0c.37-6.36-7.31-7.06-7.31-7.06" fill="#10663b"/><g opacity="0.5"><g clip-path="url(#dh)"><path d="M460.74,84.32h0l7.31,7.06H468c-6.59.35-7.31-7.06-7.31-7.06" fill="#054723"/></g></g><path d="M475.3,77.31s-.73,7.41-7.32,7.06h-.05c-.36-6.37,7.31-7.07,7.31-7.07" fill="#24963d"/><g opacity="0.5"><g clip-path="url(#di)"><path d="M475.37,77.38l0,0h0L468,84.39h0c6.59.35,7.32-7.06,7.32-7.06" fill="#054723"/></g></g><path d="M468,68.83s4.92,5.74,0,10H468c-4.91-4.25,0-10,0-10" fill="#10663b"/><g opacity="0.5"><g clip-path="url(#dj)"><path d="M468.13,68.83h-.07v10h.07c4.91-4.25,0-10,0-10" fill="#054723"/></g></g><path d="M460.82,77.31s.72,7.41,7.31,7.06h0c.37-6.37-7.31-7.07-7.31-7.07" fill="#24963d"/><g opacity="0.5"><g clip-path="url(#dk)"><path d="M460.74,77.38v0h0l7.31,7.06H468c-6.59.35-7.31-7.06-7.31-7.06" fill="#054723"/></g></g><g opacity="0.2"><g clip-path="url(#dl)"><g clip-path="url(#dm)"><g mask="url(#dn)"><polygon points="27.85 75.67 42.52 72.17 44.38 80.76 29.71 84.27 27.85 75.67" fill="url(#do)"/></g></g></g></g><g opacity="0.2"><g clip-path="url(#dp)"><path d="M38.34,73.24v0"/><path d="M37.28,78.05h0l.06-.15h0l.06-.15h0l0-.14h0v-.14h0v-.18a.29.29,0,0,0,0-.13h0v-.31h0v-.13h0v-.13h0v-.14h0v-.17h0a21.84,21.84,0,0,0,.41-2.55c0,.21-.27.91-1.74,2.64a8.63,8.63,0,0,0-1.66,3.28v-7a2.6,2.6,0,0,0,1.19-.49,3.16,3.16,0,0,0,1.55-2.28,6.62,6.62,0,0,0-.59-4.16,9.19,9.19,0,0,0-.65.75l-.34-.27H33.08l-.26.21a5.6,5.6,0,0,0-.6-.69,6.62,6.62,0,0,0-.59,4.16,3.3,3.3,0,0,0,.76,1.24,2.78,2.78,0,0,0,2,1.11v7a6.56,6.56,0,0,0-1.55-2.47c-1.46-1.46-1.7-2-1.74-2.22a15.54,15.54,0,0,0,.41,2.14h0a.33.33,0,0,0,0,.14h0v.12h0v.11h0a.21.21,0,0,0,0,.11h0a.21.21,0,0,0,0,.11v.15h0v.11h0v.11h0v.11h0l.06.12h0a.56.56,0,0,1,0,.12h0l.06.13h0l.06.13h0l.07.15a4.7,4.7,0,0,0,1.51,1.82h0l.13.08.14.08h0a2.85,2.85,0,0,0,.51.2v.54h.24v-.07a2.43,2.43,0,0,0,.37-.16l.14-.08h0l.14-.09h0l.12-.1a5.68,5.68,0,0,0,1.59-2.34h0a1.22,1.22,0,0,0,.07-.17"/><path d="M31.13,74.56V74.5a.06.06,0,0,0,0,.06"/></g></g><rect x="34.3" y="71.12" width="0.34" height="9.76" fill="#6f9e44"/><rect x="34.13" y="71.12" width="0.34" height="9.76" fill="#88bc51"/><path d="M34.29,81.12a9.48,9.48,0,0,1,2-5.11C38.09,73.85,38,73.29,38,73.29s-.5,7.06-3.72,7.83" fill="#88bc51"/><path d="M36.6,77.8a24.38,24.38,0,0,0-1.3,2.14c-.08.16-.15.31-.22.47l-.07.16-.08.27c1.49-.8,2.29-3.11,2.7-5a11.92,11.92,0,0,1-1,1.93" fill="#78ad3b"/><path d="M34.56,81.12a7.25,7.25,0,0,0-2-4.29c-1.83-1.81-1.76-2.28-1.76-2.28s.55,6,3.74,6.57" fill="#88bc51"/><path d="M32.27,78.33a21.06,21.06,0,0,1,1.31,1.79c.07.13.15.26.21.4a.31.31,0,0,1,.06.13.85.85,0,0,1,.09.22c-1.49-.67-2.29-2.61-2.7-4.17a8.62,8.62,0,0,0,1,1.63" fill="#78ad3b"/><path d="M35.92,65.8h-3a3.64,3.64,0,0,0-1.45,3,3.26,3.26,0,0,0,3,3.48,3.26,3.26,0,0,0,3-3.48,3.64,3.64,0,0,0-1.45-3" fill="#eda72b"/><path d="M32,65.32a6.62,6.62,0,0,0-.59,4.16,3.49,3.49,0,0,0,3,2.79,9.1,9.1,0,0,0-2.37-7" fill="#f7c154"/><path d="M36.9,65.32a6.62,6.62,0,0,1,.59,4.16,3.47,3.47,0,0,1-3,2.79,9.14,9.14,0,0,1,2.36-7" fill="#f7c154"/><g opacity="0.2"><g clip-path="url(#dq)"><g clip-path="url(#dr)"><g mask="url(#ds)"><polygon points="348.1 81.82 362.77 78.31 364.63 86.9 349.96 90.41 348.1 81.82" fill="url(#dt)"/></g></g></g></g><g opacity="0.2"><g clip-path="url(#du)"><path d="M358.59,79.39v0"/><path d="M357.53,84.2h0l.06-.15h0l.05-.15h0a.23.23,0,0,1,.05-.14h0v-.14h0V83.3h0v-.13h0V83h0v-.13h0v-.13h0v-.14h0v-.17h0a18.28,18.28,0,0,0,.4-2.55c0,.21-.27.91-1.74,2.64a8.51,8.51,0,0,0-1.65,3.29v-7a2.66,2.66,0,0,0,1.18-.48,3.18,3.18,0,0,0,1.55-2.29,6.55,6.55,0,0,0-.59-4.16,7.89,7.89,0,0,0-.65.76,2.16,2.16,0,0,0-.33-.27h-3l-.24.2q-.29-.35-.6-.69a6.55,6.55,0,0,0-.59,4.16,3.12,3.12,0,0,0,.78,1.67,2.83,2.83,0,0,0,2,1.12v7a6.74,6.74,0,0,0-1.56-2.48c-1.46-1.45-1.7-2-1.74-2.22a15.51,15.51,0,0,0,.4,2.14h0a.33.33,0,0,1,0,.14h0v.11h0v.11h0v.1h0V84h0a.21.21,0,0,1,0,.11h0v.11h0a.61.61,0,0,0,0,.12h0l.05.12h0a.65.65,0,0,0,0,.13h0l.06.13h0s.05.09.07.14h0l.07.14a4.57,4.57,0,0,0,1.51,1.83l.13.08h0l.14.07h0a2.85,2.85,0,0,0,.51.2v.06h.25v-.15a1.8,1.8,0,0,0,.38-.16l.13-.08h0l.14-.09h0l.13-.09a5.76,5.76,0,0,0,1.58-2.35h0a.77.77,0,0,1,.07-.16"/><path d="M351.38,80.7v0"/></g></g><rect x="354.55" y="77.26" width="0.34" height="9.76" fill="#6f9e44"/><rect x="354.38" y="77.26" width="0.34" height="9.76" fill="#88bc51"/><path d="M354.56,87.21a9.71,9.71,0,0,1,2-5.11c1.83-2.15,1.75-2.71,1.75-2.71s-.54,7.1-3.73,7.82" fill="#88bc51"/><path d="M356.85,83.94a24.64,24.64,0,0,0-1.31,2.15l-.22.46-.06.16-.08.27c1.48-.8,2.28-3.11,2.7-5a10.83,10.83,0,0,1-1,1.93" fill="#78ad3b"/><path d="M354.81,87.21a7.37,7.37,0,0,0-2-4.29c-1.83-1.81-1.76-2.28-1.76-2.28s.55,6,3.74,6.57" fill="#88bc51"/><path d="M352.51,84.47a19.72,19.72,0,0,1,1.31,1.8c.08.13.15.26.22.39l.06.13.09.23c-1.49-.68-2.29-2.61-2.71-4.18a10.19,10.19,0,0,0,1,1.63" fill="#78ad3b"/><path d="M356.17,72h-3a3.61,3.61,0,0,0-1.44,3,3.09,3.09,0,0,0,2.62,3.45,3,3,0,0,0,3.29-2.75,4.09,4.09,0,0,0,0-.7,3.6,3.6,0,0,0-1.44-3" fill="#eda72b"/><path d="M352.29,71.46a6.62,6.62,0,0,0-.59,4.16,3.47,3.47,0,0,0,2.95,2.79,9.14,9.14,0,0,0-2.36-7" fill="#f7c154"/><path d="M357.19,71.46a6.55,6.55,0,0,1,.58,4.16,3.47,3.47,0,0,1-2.95,2.79,9.1,9.1,0,0,1,2.37-7" fill="#f7c154"/><g opacity="0.2"><g clip-path="url(#dv)"><g clip-path="url(#dw)"><g mask="url(#dx)"><polygon points="341.43 96.82 356.11 93.31 357.97 101.9 343.3 105.41 341.43 96.82" fill="url(#dy)"/></g></g></g></g><g opacity="0.2"><g clip-path="url(#dz)"><path d="M351.92,94.39v0"/><path d="M350.86,99.2h0l.06-.15h0l.06-.15h0a.23.23,0,0,1,0-.14h0v-.14h0v-.19a.29.29,0,0,1,0-.13v-.18h0V98h0v-.31h0v-.14h0v-.17h0a21.82,21.82,0,0,0,.4-2.55c0,.21-.28.91-1.75,2.64a8.66,8.66,0,0,0-1.65,3.29v-7a2.75,2.75,0,0,0,1.19-.48A3.2,3.2,0,0,0,350.76,91a6.55,6.55,0,0,0-.58-4.16,6.78,6.78,0,0,0-.66.76,2.69,2.69,0,0,0-.32-.27h-3l-.25.2q-.27-.35-.6-.69a6.62,6.62,0,0,0-.59,4.16,3.12,3.12,0,0,0,.78,1.67,2.83,2.83,0,0,0,2,1.12v7A6.59,6.59,0,0,0,346,98.29c-1.47-1.45-1.71-2-1.75-2.22a17.16,17.16,0,0,0,.4,2.14h0a.33.33,0,0,1,0,.14h0v.11h0v.41h0V99h0a.21.21,0,0,1,0,.11h0v.11h0l.05.12h0l.05.12h0a.69.69,0,0,0,0,.13h0l.05.13h0s.05.09.07.14h0l.07.14a4.74,4.74,0,0,0,1.51,1.83l.14.08h0l.13.07h0a3.17,3.17,0,0,0,.51.2v.06h.25v-.1a1.8,1.8,0,0,0,.38-.16l.14-.08h0l.13-.09h0l.13-.09a5.66,5.66,0,0,0,1.58-2.35h0a.77.77,0,0,1,.07-.16"/><path d="M344.71,95.7v0"/></g></g><rect x="347.88" y="92.26" width="0.34" height="9.76" fill="#6f9e44"/><rect x="347.71" y="92.26" width="0.34" height="9.76" fill="#88bc51"/><path d="M347.89,102.21a9.71,9.71,0,0,1,2-5.11c1.83-2.15,1.76-2.71,1.76-2.71s-.55,7.1-3.74,7.82" fill="#88bc51"/><path d="M350.19,98.94a22.51,22.51,0,0,0-1.32,2.15l-.22.46,0,.16-.09.27c1.49-.8,2.29-3.11,2.71-5a12.3,12.3,0,0,1-1,1.93" fill="#78ad3b"/><path d="M348.14,102.21a7.37,7.37,0,0,0-2-4.29c-1.83-1.81-1.75-2.28-1.75-2.28s.54,6,3.73,6.57" fill="#88bc51"/><path d="M345.84,99.47a18,18,0,0,1,1.31,1.8l.23.39a.5.5,0,0,0,.05.13l.09.23c-1.49-.68-2.29-2.61-2.71-4.18a10.19,10.19,0,0,0,1,1.63" fill="#78ad3b"/><path d="M349.5,87h-3A3.67,3.67,0,0,0,345,90a3.09,3.09,0,0,0,2.62,3.45,3,3,0,0,0,3.29-2.75,4.09,4.09,0,0,0,0-.7,3.6,3.6,0,0,0-1.44-3" fill="#eda72b"/><path d="M345.62,86.46a6.62,6.62,0,0,0-.59,4.16,3.47,3.47,0,0,0,3,2.79,9.15,9.15,0,0,0-2.37-7" fill="#f7c154"/><path d="M350.52,86.46a6.55,6.55,0,0,1,.58,4.16,3.47,3.47,0,0,1-3,2.79,9.14,9.14,0,0,1,2.37-7" fill="#f7c154"/><g opacity="0.2"><g clip-path="url(#ea)"><g clip-path="url(#eb)"><g mask="url(#ec)"><polygon points="356.41 108.85 371.09 105.34 372.95 113.93 358.28 117.44 356.41 108.85" fill="url(#ed)"/></g></g></g></g><g opacity="0.2"><g clip-path="url(#ee)"><path d="M366.9,106.4v0"/><path d="M365.84,111.21h0a.88.88,0,0,0,.05-.15h0a.23.23,0,0,1,.05-.14h0a.58.58,0,0,1,.05-.14h0l.05-.14h0a.22.22,0,0,1,0-.13h0a.19.19,0,0,1,.05-.13c.05,0,0,0,0,0V110h0v-.13h0v-.32h0v-.17h0a21.84,21.84,0,0,0,.41-2.55c0,.2-.28.91-1.74,2.64a8.78,8.78,0,0,0-1.66,3.28v-7a2.48,2.48,0,0,0,1.19-.48,3.08,3.08,0,0,0,1.54-2.29,6.47,6.47,0,0,0-.59-4.15,7.67,7.67,0,0,0-.64.75,2.78,2.78,0,0,0-.33-.27h-3l-.25.21a8,8,0,0,0-.6-.69,6.46,6.46,0,0,0-.58,4.15,3.08,3.08,0,0,0,.78,1.68,2.78,2.78,0,0,0,2,1.11v7a7,7,0,0,0-1.57-2.47c-1.46-1.46-1.7-2-1.73-2.22a14.15,14.15,0,0,0,.4,2.14h0v.14h0v.12h0v.11h0v.11h0v.11h0v.27h0v.11h0v.11h0a.61.61,0,0,0,.05.12h0l.06.12h0l0,.13h0a.83.83,0,0,0,.07.13h0l.08.15a4.61,4.61,0,0,0,1.51,1.82l.12.08h0l.14.08h0a2.85,2.85,0,0,0,.51.2v.06h.24v-.09A2.54,2.54,0,0,0,363,114l.13-.08h0l.14-.09h0l.13-.1a5.72,5.72,0,0,0,1.58-2.34h0l.06-.17"/><path d="M359.69,107.72v0"/></g></g><rect x="362.86" y="104.28" width="0.34" height="9.76" fill="#6f9e44"/><rect x="362.69" y="104.28" width="0.34" height="9.76" fill="#88bc51"/><path d="M362.9,114.23a9.64,9.64,0,0,1,2-5.11c1.83-2.16,1.75-2.72,1.75-2.72s-.54,7.11-3.73,7.83" fill="#88bc51"/><path d="M365.16,111a23.78,23.78,0,0,0-1.3,2.16,5,5,0,0,0-.22.47l-.07.16-.09.27c1.5-.81,2.3-3.11,2.71-5a10.92,10.92,0,0,1-1,1.94" fill="#78ad3b"/><path d="M363.11,114.23a7.25,7.25,0,0,0-2-4.29c-1.82-1.81-1.74-2.28-1.74-2.28s.53,6,3.72,6.57" fill="#88bc51"/><path d="M360.83,111.48a21.11,21.11,0,0,1,1.3,1.8c.08.13.15.26.22.39l.07.14.08.22c-1.49-.67-2.29-2.61-2.7-4.17a8.55,8.55,0,0,0,1,1.62" fill="#78ad3b"/><path d="M364.48,99h-3a3.63,3.63,0,0,0-1.43,3,3.08,3.08,0,0,0,2.61,3.45,3,3,0,0,0,3.29-2.75,2.73,2.73,0,0,0,0-.7,3.64,3.64,0,0,0-1.44-3" fill="#eda72b"/><path d="M360.6,98.48a6.46,6.46,0,0,0-.58,4.15,3.46,3.46,0,0,0,3,2.8,9.14,9.14,0,0,0-2.37-7" fill="#f7c154"/><path d="M365.46,98.48a6.6,6.6,0,0,1,.59,4.15,3.48,3.48,0,0,1-3,2.8,9.15,9.15,0,0,1,2.37-7" fill="#f7c154"/><g opacity="0.2"><g clip-path="url(#ef)"><g clip-path="url(#eg)"><g mask="url(#eh)"><polygon points="145.79 73.08 175.67 64.83 178.59 76.49 148.71 84.75 145.79 73.08" fill="url(#ei)"/></g></g></g></g><path d="M146.69,76.74h21.75s.79-10.29-10.78-10.7-11,10.7-11,10.7" fill="#c9c9c9"/><path d="M157.68,66h-1c2.47,2.66,4.46,6.62,5.94,10.71h5.82s.79-10.29-10.78-10.7" fill="#b2b2b2"/><g opacity="0.2"><g clip-path="url(#ej)"><g clip-path="url(#ek)"><g mask="url(#el)"><polygon points="457.33 111.53 482.88 104.62 485.33 114.59 459.78 121.5 457.33 111.53" fill="url(#em)"/></g></g></g></g><path d="M457.41,112.06H476s.67-8.78-9.19-9.13-9.36,9.13-9.36,9.13" fill="#c9c9c9"/><path d="M466.77,102.93h-.84a27,27,0,0,1,5.06,9.13h5s.67-8.78-9.19-9.13" fill="#b2b2b2"/><g opacity="0.2"><g clip-path="url(#en)"><g clip-path="url(#eo)"><g mask="url(#ep)"><polygon points="440.1 108.28 468.34 100.49 471.1 111.5 442.87 119.3 440.1 108.28" fill="url(#eq)"/></g></g></g></g><path d="M441,111.71h20.56s.74-9.72-10.19-10.11S441,111.71,441,111.71" fill="#c9c9c9"/><path d="M451.34,101.6h-.95A30.48,30.48,0,0,1,456,111.71h5.51s.74-9.72-10.2-10.11" fill="#b2b2b2"/><g opacity="0.2"><g clip-path="url(#er)"><g clip-path="url(#es)"><g mask="url(#et)"><polygon points="269.17 92.16 273.88 91.42 274.21 93.67 269.5 94.42 269.17 92.16" fill="url(#eu)"/></g></g></g></g><path d="M272.87,90.83a2.53,2.53,0,1,1-2.53-2.64h0a2.57,2.57,0,0,1,2.52,2.63h0" fill="#ea7d1b"/><path d="M269.81,91.12a5.57,5.57,0,0,1-1.91.5A2.5,2.5,0,0,0,271,93.41a2.66,2.66,0,0,0,1.71-3.29,2.48,2.48,0,0,0-.47-.93,6.8,6.8,0,0,1-2.5,1.93" fill="#dd690a"/><g opacity="0.2"><g clip-path="url(#ev)"><g clip-path="url(#ew)"><g mask="url(#ex)"><polygon points="280.44 88.19 285.15 87.44 285.48 89.69 280.77 90.44 280.44 88.19" fill="url(#ey)"/></g></g></g></g><path d="M284.15,86.85a2.53,2.53,0,1,1-2.53-2.64h0a2.59,2.59,0,0,1,2.52,2.64" fill="#ea7d1b"/><path d="M281.07,87.12a5.18,5.18,0,0,1-1.85.49,2.5,2.5,0,0,0,3.16,1.74,2.63,2.63,0,0,0,1.77-2.5,2.81,2.81,0,0,0-.56-1.66,6.87,6.87,0,0,1-2.52,1.93" fill="#dd690a"/><g opacity="0.2"><g clip-path="url(#ez)"><g clip-path="url(#fa)"><g mask="url(#fb)"><polygon points="111.85 81.41 116.56 80.66 116.88 82.92 112.17 83.67 111.85 81.41" fill="url(#fc)"/></g></g></g></g><path d="M115.56,80.12A2.53,2.53,0,1,1,113,77.47a2.59,2.59,0,0,1,2.53,2.65h0" fill="#ea7d1b"/><path d="M112.48,80.33a5.52,5.52,0,0,1-1.9.5,2.51,2.51,0,0,0,3.13,1.79,2.68,2.68,0,0,0,1.71-3.29,2.74,2.74,0,0,0-.46-.92,6.84,6.84,0,0,1-2.52,1.92" fill="#dd690a"/><g opacity="0.2"><g clip-path="url(#fd)"><g clip-path="url(#fe)"><g mask="url(#ff)"><polygon points="450.29 53.89 455 53.14 455.32 55.39 450.61 56.14 450.29 53.89" fill="url(#fg)"/></g></g></g></g><path d="M454,52.57a2.53,2.53,0,1,1-2.52-2.65h0A2.59,2.59,0,0,1,454,52.57" fill="#ea7d1b"/><path d="M450.92,52.83a5.46,5.46,0,0,1-1.9.5,2.49,2.49,0,0,0,3.14,1.74,2.66,2.66,0,0,0,1.66-3.3,2.78,2.78,0,0,0-.43-.86,6.81,6.81,0,0,1-2.51,1.92" fill="#dd690a"/><g opacity="0.2"><g clip-path="url(#fh)"><g clip-path="url(#fi)"><g mask="url(#fj)"><polygon points="459.78 48.3 463.31 47.74 463.56 49.43 460.02 49.99 459.78 48.3" fill="url(#fk)"/></g></g></g></g><path d="M462.57,47.32a1.91,1.91,0,1,1-1.9-2,2,2,0,0,1,1.9,2" fill="#ea7d1b"/><path d="M460.27,47.52a4.1,4.1,0,0,1-1.4.37,1.88,1.88,0,0,0,2.42,1.24,2,2,0,0,0,1.28-1.81,2.05,2.05,0,0,0-.42-1.2,5.27,5.27,0,0,1-1.9,1.45" fill="#dd690a"/><g opacity="0.2"><g clip-path="url(#fl)"><g clip-path="url(#fm)"><g mask="url(#fn)"><polygon points="477.05 35.62 514.37 20.57 523.37 45.15 486.04 60.2 477.05 35.62" fill="url(#fo)"/></g></g></g></g><path d="M497.45,18a7.61,7.61,0,0,0-6.73-7.72A7.4,7.4,0,1,0,476,9.76a5.23,5.23,0,0,0,0,.56v.1a7.88,7.88,0,0,0-2.32,14.33,8,8,0,0,0,.89,10.93A7.21,7.21,0,0,0,478,37.4l-.16.23h10.4V37.5a7.61,7.61,0,0,0,7.1-8,8,8,0,0,0-1.69-4.64A7.84,7.84,0,0,0,497.49,18" fill="#1f8959"/><path d="M497.45,18a7.61,7.61,0,0,0-6.73-7.72,7.58,7.58,0,0,0-7.38-7.75h-.07V37.64h5v-.13a7.61,7.61,0,0,0,7.1-8,8,8,0,0,0-1.69-4.64A7.84,7.84,0,0,0,497.49,18" fill="#0f705e"/><rect x="481.13" y="37.64" width="4.14" height="9.15" fill="#93473d"/><rect x="483.05" y="37.64" width="2.35" height="9.15" fill="#7a342e"/><path d="M477.37,19.93a2.14,2.14,0,1,1-2.15-2.24h0a2.19,2.19,0,0,1,2.14,2.24" fill="#ea7d1b"/><path d="M474.76,20.12a4.8,4.8,0,0,1-1.58.42,2.16,2.16,0,0,0,2.05,1.6,2.2,2.2,0,0,0,2.14-2.25,2.34,2.34,0,0,0-.47-1.41,6,6,0,0,1-2.14,1.64" fill="#dd690a"/><path d="M490.19,19.58A2.15,2.15,0,1,1,488,17.33a2.2,2.2,0,0,1,2.15,2.25" fill="#ea7d1b"/><path d="M487.58,19.8a4.63,4.63,0,0,1-1.59.42,2.12,2.12,0,0,0,2.65,1.52,2.24,2.24,0,0,0,1.54-2.16,2.3,2.3,0,0,0-.47-1.41,5.84,5.84,0,0,1-2.13,1.63" fill="#dd690a"/><path d="M492.11,31.32a2.15,2.15,0,1,1-2.19-2.2H490a2.19,2.19,0,0,1,2.13,2.24h0" fill="#ea7d1b"/><path d="M489.51,31.54a4.65,4.65,0,0,1-1.58.43,2.11,2.11,0,0,0,2.68,1.45A2.27,2.27,0,0,0,492,30.6a2,2,0,0,0-.35-.69,5.74,5.74,0,0,1-2.13,1.63" fill="#dd690a"/><path d="M481.09,30.67A2.15,2.15,0,1,1,479,28.42h0a2.19,2.19,0,0,1,2.13,2.24h0" fill="#ea7d1b"/><path d="M478.49,30.89a4.64,4.64,0,0,1-1.59.43,2.13,2.13,0,0,0,2.68,1.49,2.26,2.26,0,0,0,1.51-2.14,2.31,2.31,0,0,0-.48-1.41,5.63,5.63,0,0,1-2.12,1.63" fill="#dd690a"/><path d="M486.44,10.27A2.14,2.14,0,1,1,484.3,8a2.18,2.18,0,0,1,2.14,2.23v0" fill="#ea7d1b"/><path d="M483.87,10.49a4.57,4.57,0,0,1-1.58.42,2.15,2.15,0,0,0,2.6,1.64,2.27,2.27,0,0,0,1.56-2.73,2.16,2.16,0,0,0-.45-.91,5.79,5.79,0,0,1-2.13,1.58" fill="#dd690a"/><rect x="481.37" width="1.9" height="1.9" fill="none"/></svg>