<svg xmlns="http://www.w3.org/2000/svg" viewBox="0 0 133 52.08" width="133" height="52.08"><title>logo</title><path d="M132.68,13.09H50.79s-47.56,1.34-40.58,39h0l89.32,0S136.84,51.29,132.68,13.09Z" fill="#90c31f"/><path d="M52.67,22.79c.4-8.13-1.26-13.32-3.43-16.62A12.86,12.86,0,0,0,38.64.43L.06,0h0c-.4,8.13,1.27,13.32,3.43,16.62a12.86,12.86,0,0,0,10.6,5.74l38.58.43h0Z" fill="#0055a2"/><path d="M14.19,4.94H17.6V15.33h7v2.53H16.39a2.19,2.19,0,0,1-2.2-2.2Z" fill="#fff"/><path d="M35.13,4.94v5H29.79v-5H26.38V17.86h3.41V11.71a2.18,2.18,0,0,0,1.69.8h3.65v5.35h3.41V4.94Z" fill="#fff"/><path d="M25.17,30.34V29H28V27.53H30V29h2.66v1.36H31.35a3.28,3.28,0,0,1,.79,3.78,3.15,3.15,0,0,1-.74,1.07,3.8,3.8,0,0,1-1.14.74,3.61,3.61,0,0,1-2.74,0,3.43,3.43,0,0,1-1.11-.74,3.28,3.28,0,0,1-1-2.41,3.23,3.23,0,0,1,.28-1.35,3.51,3.51,0,0,1,.78-1.09Zm3.71,4.46A1.45,1.45,0,0,0,30,34.22a2.19,2.19,0,0,0,.47-1.44A2.13,2.13,0,0,0,30,31.37a1.42,1.42,0,0,0-1.15-.58,1.18,1.18,0,0,0-.61.16,1.65,1.65,0,0,0-.5.42,1.88,1.88,0,0,0-.35.64,2.76,2.76,0,0,0-.11.77,2.85,2.85,0,0,0,.11.79,2.14,2.14,0,0,0,.35.65,2,2,0,0,0,.5.42,1.29,1.29,0,0,0,.61.16m4.9,1.92a5.81,5.81,0,0,1,1.49.21,8.18,8.18,0,0,1,1.5.58,4,4,0,0,1,1.1,1,2.28,2.28,0,0,1,.45,1.4,2.1,2.1,0,0,1-.44,1.34,4.07,4.07,0,0,1-1.1,1,5.66,5.66,0,0,1-1.46.59,6.45,6.45,0,0,1-1.54.2,6.27,6.27,0,0,1-1.49-.19,5.62,5.62,0,0,1-1.45-.57,3.81,3.81,0,0,1-1.15-1,2.24,2.24,0,0,1-.44-1.39,2.14,2.14,0,0,1,.44-1.35,4.15,4.15,0,0,1,1.1-1,6.54,6.54,0,0,1,1.46-.62,5.6,5.6,0,0,1,1.53-.22m0,1.36a2.74,2.74,0,0,0-.9.15,3,3,0,0,0-.77.41,2.25,2.25,0,0,0-.52.6,1.38,1.38,0,0,0-.19.69,1.33,1.33,0,0,0,.19.69,2.14,2.14,0,0,0,.52.57,2.64,2.64,0,0,0,.77.38,3,3,0,0,0,.9.13,3.13,3.13,0,0,0,.91-.13,2.64,2.64,0,0,0,.77-.38,1.89,1.89,0,0,0,.53-.57,1.42,1.42,0,0,0,.18-.69,1.48,1.48,0,0,0-.18-.69,1.71,1.71,0,0,0-.5-.6,3.21,3.21,0,0,0-.78-.41,2.79,2.79,0,0,0-.93-.15m2.89-10.24h2V36.2h-2V32.38H36a1.08,1.08,0,0,1-.74-.3v4.07h-2V27.89h2V31h1.41Z" fill="#fff"/><path d="M48.31,35.21h6v1.38H40.23V35.21h5.94V33.87H43.69a1.8,1.8,0,0,1-1.19-.32,1.37,1.37,0,0,1-.35-1V28h2.13V29.4h5.95V28h2.15v5.9H48.31Zm2.57,2.53a1.8,1.8,0,0,1,1.22.33,1.37,1.37,0,0,1,.37,1.07v3.59H50.33V39.1H41.92V37.74Zm-.65-5.18V30.77H44.78a.41.41,0,0,1-.28-.08l-.22-.23v2.1Z" fill="#fff"/><path d="M55.3,30.34V29h3.51V27.53H61V29h3.31v1.36h-1.9a3.45,3.45,0,0,1,1,1.12,3,3,0,0,1,.38,1.5,3.12,3.12,0,0,1-.32,1.39,3.92,3.92,0,0,1-.84,1.14,4.34,4.34,0,0,1-2.82,1,4.28,4.28,0,0,1-1.56-.29A3.85,3.85,0,0,1,57,35.49a3.57,3.57,0,0,1-.88-1.14A3.12,3.12,0,0,1,55.79,33a3,3,0,0,1,.38-1.5,3.45,3.45,0,0,1,1-1.12ZM60,41.21h7.88v1.37H59.39a1.72,1.72,0,0,1-1.2-.33,1.35,1.35,0,0,1-.36-1V37.73H60Zm-.2-6.15a1.78,1.78,0,0,0,1.36-.61,2.26,2.26,0,0,0,0-3,1.78,1.78,0,0,0-1.36-.61,1.81,1.81,0,0,0-1.38.61,2.23,2.23,0,0,0,0,3,1.81,1.81,0,0,0,1.38.61m8-3.59H70v1.36H68.5a.93.93,0,0,1-.72-.32v5.93H65.63V27.84h2.15Z" fill="#fff"/><path d="M85.59,28v7.62H79.38a1.79,1.79,0,0,1-1.19-.31,1.34,1.34,0,0,1-.35-1.05V28h2.1v2.42H83.5V28ZM83.5,34.35V31.82H80.44c-.15,0-.24,0-.29-.1l-.21-.22v2.85ZM90,36.78v5.8h-8.3a1.72,1.72,0,0,1-1.18-.33,1.35,1.35,0,0,1-.36-1V36.78h2.14v1.68h5.53V36.78Zm-7.7,2.74v1.69h5.53V39.83h-5a.44.44,0,0,1-.29-.08l-.21-.23M90,31H92.2v1.36H90.67a.91.91,0,0,1-.71-.32V36H87.81V27.84H90Z" fill="#fff"/><path d="M96,28h2.17V29.4a5,5,0,0,0,.93,3,6.49,6.49,0,0,0,2.78,2L101,35.56A5.35,5.35,0,0,1,99.57,35a6,6,0,0,1-1.15-.84,5.12,5.12,0,0,1-.84-.93,3.49,3.49,0,0,1-.47-.92,4.37,4.37,0,0,1-.49.92,5.44,5.44,0,0,1-.83.93,6.76,6.76,0,0,1-1.16.84,5.42,5.42,0,0,1-1.46.57l-.88-1.08c2.48-1,3.71-2.74,3.71-5.08Zm4.34,8.55a6.34,6.34,0,0,1,1.51.2,5.59,5.59,0,0,1,1.47.59,3.78,3.78,0,0,1,1.11,1,2.37,2.37,0,0,1,.45,1.44,2.4,2.4,0,0,1-.42,1.39,4,4,0,0,1-1.07,1,6.51,6.51,0,0,1-1.48.62,5.83,5.83,0,0,1-1.57.22,6,6,0,0,1-3-.86,3.87,3.87,0,0,1-1.09-1,2.41,2.41,0,0,1,0-2.75,3.9,3.9,0,0,1,1.09-1,6.51,6.51,0,0,1,1.48-.62,5.71,5.71,0,0,1,1.53-.22m0,1.31a2.38,2.38,0,0,0-.88.17,3.42,3.42,0,0,0-.77.44,2.18,2.18,0,0,0-.53.61,1.39,1.39,0,0,0-.2.73,1.42,1.42,0,0,0,.2.74,2.08,2.08,0,0,0,.53.62,3.42,3.42,0,0,0,.77.44,2.38,2.38,0,0,0,.88.17,2.49,2.49,0,0,0,.91-.17,3.28,3.28,0,0,0,.78-.44,2.08,2.08,0,0,0,.53-.62,1.42,1.42,0,0,0,.2-.74,1.45,1.45,0,0,0-.2-.74,2.25,2.25,0,0,0-.53-.63,3,3,0,0,0-.78-.43,2.71,2.71,0,0,0-.91-.15M105,31h2.27v1.36h-1.52a1,1,0,0,1-.75-.32V36h-2.12V27.84H105Z" fill="#fff"/><path d="M115.68,31.27v-3a1.3,1.3,0,0,0-1.3-1.3H111.6a1.3,1.3,0,1,1,0-2.6h2.78a1.3,1.3,0,0,0,1.3-1.29v-3a1.3,1.3,0,0,1,1.3-1.3h.19a1.31,1.31,0,0,1,1.3,1.3v3a1.3,1.3,0,0,0,1.3,1.29h2.78a1.3,1.3,0,0,1,0,2.6h-2.78a1.3,1.3,0,0,0-1.3,1.3v3a1.3,1.3,0,0,1-1.3,1.3H117a1.3,1.3,0,0,1-1.3-1.3" fill="#fff"/></svg>