<svg xmlns="http://www.w3.org/2000/svg" xmlns:xlink="http://www.w3.org/1999/xlink" viewBox="0 0 19 19" width="19" height="19"><defs><clipPath id="a"><rect width="19" height="19" fill="none"/></clipPath></defs><g clip-path="url(#a)"><path d="M14.5,1H14V.5a.5.5,0,0,0-1,0V1H6V.5a.5.5,0,0,0-1,0V1H4.5A4.51,4.51,0,0,0,0,5.5v9A4.51,4.51,0,0,0,4.5,19h10A4.51,4.51,0,0,0,19,14.5v-9A4.51,4.51,0,0,0,14.5,1M4.5,2H5V3.5a.5.5,0,0,0,1,0V2h7V3.5a.5.5,0,0,0,1,0V2h.5A3.5,3.5,0,0,1,18,5.5V6H1V5.5A3.5,3.5,0,0,1,4.5,2m10,16H4.5A3.5,3.5,0,0,1,1,14.5V7H18v7.5A3.5,3.5,0,0,1,14.5,18m0-7.5a1,1,0,1,1-1-1,1,1,0,0,1,1,1m-4,0a1,1,0,1,1-1-1,1,1,0,0,1,1,1m-4,0a1,1,0,1,1-1-1,1,1,0,0,1,1,1m8,4a1,1,0,1,1-1-1,1,1,0,0,1,1,1m-4,0a1,1,0,1,1-1-1,1,1,0,0,1,1,1m-4,0a1,1,0,1,1-1-1,1,1,0,0,1,1,1" fill="#41416e"/></g></svg>