<svg xmlns="http://www.w3.org/2000/svg" xmlns:xlink="http://www.w3.org/1999/xlink" viewBox="0 0 557.48 234.72"><defs><linearGradient id="a" y1="234.72" x2="1" y2="234.72" gradientTransform="matrix(0, 108.33, 108.33, 0, -25211.86, 0.87)" gradientUnits="userSpaceOnUse"><stop offset="0" stop-color="#fff"/><stop offset="0.08" stop-color="#c4c4c4"/><stop offset="0.19" stop-color="#7f7f7f"/><stop offset="0.28" stop-color="#494949"/><stop offset="0.36" stop-color="#212121"/><stop offset="0.42" stop-color="#090909"/><stop offset="0.46"/><stop offset="1"/></linearGradient><radialGradient id="b" cx="0" cy="234.72" r="1" gradientTransform="matrix(-1.78, 0, 0, 0.27, 149.49, -22.37)" gradientUnits="userSpaceOnUse"><stop offset="0" stop-color="#fff"/><stop offset="0.28" stop-color="#4d4d4d"/><stop offset="1"/></radialGradient><linearGradient id="c" y1="234.72" x2="1" y2="234.72" gradientTransform="matrix(-103.02, 0, 0, 103.02, 185.24, -24041.03)" gradientUnits="userSpaceOnUse"><stop offset="0"/><stop offset="0.44"/><stop offset="1" stop-color="#fff"/></linearGradient><linearGradient id="d" y1="234.72" y2="234.72" gradientTransform="matrix(-109.13, 0, 0, 109.13, 627.96, -25466.7)" xlink:href="#c"/><linearGradient id="e" y1="234.72" y2="234.72" gradientTransform="matrix(-130.51, 0, 0, 130.51, 621.09, -30482)" xlink:href="#c"/><linearGradient id="f" y1="234.68" y2="234.68" gradientTransform="matrix(-30.77, 0, 0, 30.77, 67.54, -7098.71)" xlink:href="#c"/><linearGradient id="g" y1="234.68" y2="234.68" gradientTransform="matrix(-30.77, 0, 0, 30.77, 403.76, -7092.54)" xlink:href="#c"/><linearGradient id="h" y1="234.68" y2="234.68" gradientTransform="matrix(-30.77, 0, 0, 30.77, 396.76, -7077.54)" xlink:href="#c"/><linearGradient id="i" y1="234.68" y2="234.68" gradientTransform="matrix(-30.77, 0, 0, 30.77, 412.49, -7065.52)" xlink:href="#c"/><linearGradient id="j" y1="234.73" y2="234.73" gradientTransform="matrix(-24.26, 0, 0, 24.26, 198.26, -5575.87)" xlink:href="#c"/><linearGradient id="k" y1="234.73" y2="234.73" gradientTransform="matrix(-20.69, 0, 0, 20.69, 517.95, -4701.44)" xlink:href="#c"/><linearGradient id="l" y1="234.73" y2="234.73" gradientTransform="matrix(-22.92, 0, 0, 22.92, 504.77, -5227.16)" xlink:href="#c"/><radialGradient id="m" cx="0" cy="234.72" r="1" gradientTransform="matrix(0, 1.78, -0.27, 0, 212.7, 40.97)" xlink:href="#b"/><linearGradient id="n" y1="234.72" y2="234.72" gradientTransform="matrix(-8.43, 0, 0, 8.43, 292.81, -1842.07)" xlink:href="#c"/><linearGradient id="o" y1="234.72" y2="234.72" gradientTransform="matrix(-8.43, 0, 0, 8.43, 304.64, -1846.05)" xlink:href="#c"/><linearGradient id="p" y1="234.72" y2="234.72" gradientTransform="matrix(-8.43, 0, 0, 8.43, 127.64, -1852.99)" xlink:href="#c"/><linearGradient id="q" y1="234.72" y2="234.72" gradientTransform="matrix(-8.43, 0, 0, 8.43, 482.96, -1880.34)" xlink:href="#c"/><linearGradient id="r" y1="234.72" y2="234.72" gradientTransform="matrix(-6.32, 0, 0, 6.32, 490.38, -1391.07)" xlink:href="#c"/><linearGradient id="s" y1="234.72" y2="234.72" gradientTransform="matrix(-165.86, 0, 0, 165.86, 669.91, -38846.5)" xlink:href="#c"/><radialGradient id="t" cx="0" cy="234.72" r="1" gradientTransform="matrix(1, 0, 0, -1, 149.42, 276.75)" xlink:href="#b"/><radialGradient id="u" cx="0" cy="234.72" r="1" gradientTransform="matrix(1.01, 0, 0, -0.98, 149.4, 271.18)" xlink:href="#b"/><radialGradient id="v" cx="0" cy="234.72" r="1" gradientTransform="matrix(1.08, 0, 0, -1.05, 149.41, 288.21)" xlink:href="#b"/><radialGradient id="w" cx="0" cy="234.72" r="1" gradientTransform="matrix(1.24, 0, 0, -1.21, 149.4, 324.21)" xlink:href="#b"/><radialGradient id="x" cx="0" cy="234.72" r="1" gradientTransform="matrix(1.33, 0, 0, -1.3, 149.41, 345.1)" xlink:href="#b"/><linearGradient id="y" y1="234.72" y2="234.72" gradientTransform="matrix(-142.73, 0, 0, 142.73, 310.78, -33392.69)" xlink:href="#c"/><linearGradient id="z" y1="234.72" y2="234.72" gradientTransform="matrix(-93.86, 0, 0, 93.86, 234.47, -21932.61)" xlink:href="#c"/><clipPath id="aa"><rect x="15" width="531" height="219.03" fill="none"/></clipPath><clipPath id="ab"><rect width="557.48" height="234.72" fill="none"/></clipPath><clipPath id="ac"><path d="M326.12,98.4c-38.81,11.18-73.53,14.43-106.55,10.88V163.8H557.43L557.48,72s-15.55-3-45.11-3c-38.94,0-102.19,5.22-186.25,29.45" fill="none"/></clipPath><linearGradient id="ad" y1="234.72" x2="1" y2="234.72" gradientTransform="matrix(0, -168.39, -168.39, 0, 39913.01, 162.46)" gradientUnits="userSpaceOnUse"><stop offset="0" stop-color="#2a9f97"/><stop offset="1" stop-color="#36656c"/></linearGradient><clipPath id="ae"><path d="M326.12,120.24c-38.81,11.18-73.53,14.44-106.55,10.88v54.52H557.43l.05-91.84s-15.55-3-45.1-3c-38.94,0-102.2,5.23-186.26,29.45" fill="none"/></clipPath><linearGradient id="af" y1="234.72" y2="234.72" gradientTransform="matrix(0, -217.7, -217.7, 0, 51487.47, 215.5)" xlink:href="#ad"/><clipPath id="ag"><path d="M326.12,142.08c-38.81,11.19-73.53,14.44-106.55,10.88v54.52H557.43l.05-91.83s-15.55-3-45.1-3c-38.94,0-102.2,5.22-186.26,29.44" fill="none"/></clipPath><linearGradient id="ah" y1="234.72" y2="234.72" gradientTransform="matrix(0, -256.06, -256.06, 0, 60490.79, 277.81)" xlink:href="#ad"/><clipPath id="ai"><path d="M0,89.78.08,234.72H557.47v-86c-54.48,5.61-111.76.47-175.78-17.18C243,93.28,138.65,85,74.41,85,25.66,85,0,89.78,0,89.78" fill="none"/></clipPath><linearGradient id="aj" y1="234.72" x2="1" y2="234.72" gradientTransform="matrix(0, -208.49, -208.49, 0, 49215.83, 257.14)" gradientUnits="userSpaceOnUse"><stop offset="0" stop-color="#2a9f97"/><stop offset="1" stop-color="#83d8b3"/></linearGradient><clipPath id="al"><rect x="128.74" width="174.78" height="46.71" fill="none"/></clipPath><clipPath id="am"><path d="M303.53,46.71c-1.78-7.64-8.22-13.31-15.92-13.31H287c-2.36-10.11-10.9-17.6-21.09-17.6A21.14,21.14,0,0,0,249.33,24a20.1,20.1,0,0,0-10.67-3.07h-.07C237.71,9.21,228.56,0,217.4,0a21.05,21.05,0,0,0-18.35,11.23,14.78,14.78,0,0,0-14.76.8,21.22,21.22,0,0,0-17.11-8.91c-12,0-21.74,10.41-21.74,23.25a24.94,24.94,0,0,0,.41,4.53,13.84,13.84,0,0,0-2-.15c-8.27,0-15,7.13-15.06,16Z" fill="none"/></clipPath><mask id="an" x="128.74" y="0" width="174.78" height="46.71" maskUnits="userSpaceOnUse"><rect x="128.74" width="174.78" height="46.71" fill="url(#a)"/></mask><linearGradient id="ao" y1="234.72" x2="1" y2="234.72" gradientTransform="matrix(0, 108.33, 108.33, 0, -25211.86, 0.87)" gradientUnits="userSpaceOnUse"><stop offset="0" stop-color="#fff"/><stop offset="0.46" stop-color="#fff"/><stop offset="1" stop-color="#fff"/></linearGradient><clipPath id="ap"><path d="M149.47,40.73c-1,.06-1.77.23-1.76.38s.81.22,1.79.15,1.78-.23,1.76-.38-.46-.18-1.1-.18l-.69,0" fill="none"/></clipPath><mask id="aq" x="147.66" y="40.48" width="3.65" height="1.07" maskUnits="userSpaceOnUse"><rect x="147.68" y="40.59" width="3.61" height="0.85" transform="translate(-2.29 9.51) rotate(-3.62)" fill="url(#b)"/></mask><radialGradient id="ar" cx="0" cy="234.72" r="1" gradientTransform="matrix(-1.78, 0, 0, 0.27, 149.49, -22.37)" gradientUnits="userSpaceOnUse"><stop offset="0" stop-color="#fff"/><stop offset="0.28" stop-color="#fff"/><stop offset="1" stop-color="#ecffff"/></radialGradient><clipPath id="as"><path d="M149.36,39.19c-.15,0-.26.8-.25,1.78s.13,1.78.28,1.78.26-.8.26-1.78-.14-1.78-.29-1.78h0" fill="none"/></clipPath><mask id="at" x="149.07" y="39.18" width="0.62" height="3.58" maskUnits="userSpaceOnUse"><rect x="149.08" y="39.18" width="0.59" height="3.57" transform="matrix(1, -0.01, 0.01, 1, -0.35, 1.3)" fill="url(#m)"/></mask><radialGradient id="au" cx="0" cy="234.72" r="1" gradientTransform="matrix(0, 1.78, -0.27, 0, 212.7, 40.97)" xlink:href="#ar"/><clipPath id="av"><path d="M149.35,40a1,1,0,1,0,.07,0h-.07" fill="none"/></clipPath><mask id="aw" x="148.25" y="39.83" width="2.33" height="2.3" maskUnits="userSpaceOnUse"><rect x="148.32" y="39.9" width="2.2" height="2.17" transform="translate(-2.26 9.37) rotate(-3.57)" fill="url(#t)"/></mask><radialGradient id="ax" cx="0" cy="234.72" r="1" gradientTransform="matrix(1, 0, 0, -1, 149.42, 276.75)" xlink:href="#ar"/><clipPath id="az"><rect x="148.36" y="39.9" width="2.11" height="2.16" fill="none"/></clipPath><clipPath id="ba"><path d="M149.46,40a1,1,0,0,1,.92,1.05,1,1,0,0,1-1,1,1,1,0,0,1,.1-2" fill="none"/></clipPath><mask id="bb" x="148.3" y="39.85" width="2.21" height="2.26" maskUnits="userSpaceOnUse"><rect x="148.33" y="39.92" width="2.16" height="2.11" transform="translate(101.32 188.25) rotate(-87.25)" fill="url(#u)"/></mask><radialGradient id="bc" cx="0" cy="234.72" r="1" gradientTransform="matrix(1.01, 0, 0, -0.98, 149.4, 271.18)" xlink:href="#ar"/><clipPath id="be"><path d="M149.47,39.9a1.08,1.08,0,1,1-1.11,1,1.07,1.07,0,0,1,1.11-1" fill="none"/></clipPath><mask id="bf" x="148.23" y="39.77" width="2.37" height="2.42" maskUnits="userSpaceOnUse"><rect x="148.26" y="39.85" width="2.32" height="2.26" transform="translate(101.33 188.26) rotate(-87.25)" fill="url(#v)"/></mask><radialGradient id="bg" cx="0" cy="234.72" r="1" gradientTransform="matrix(1.08, 0, 0, -1.05, 149.41, 288.21)" xlink:href="#ar"/><clipPath id="bh"><rect x="148.13" y="39.65" width="2.59" height="2.66" fill="none"/></clipPath><clipPath id="bi"><path d="M149.46,39.74a1.24,1.24,0,1,1-1.26,1.18,1.22,1.22,0,0,1,1.26-1.18" fill="none"/></clipPath><mask id="bj" x="148.05" y="39.59" width="2.72" height="2.78" maskUnits="userSpaceOnUse"><rect x="148.08" y="39.68" width="2.66" height="2.59" transform="translate(101.32 188.25) rotate(-87.25)" fill="url(#w)"/></mask><radialGradient id="bk" cx="0" cy="234.72" r="1" gradientTransform="matrix(1.24, 0, 0, -1.21, 149.4, 324.21)" xlink:href="#ar"/><clipPath id="bm"><path d="M149.49,39.66a1.33,1.33,0,1,1-1.36,1.26,1.3,1.3,0,0,1,1.36-1.26" fill="none"/></clipPath><mask id="bn" x="147.96" y="39.49" width="2.92" height="2.98" maskUnits="userSpaceOnUse"><rect x="147.99" y="39.59" width="2.85" height="2.79" transform="translate(101.33 188.27) rotate(-87.25)" fill="url(#x)"/></mask><radialGradient id="bo" cx="0" cy="234.72" r="1" gradientTransform="matrix(1.33, 0, 0, -1.3, 149.41, 345.1)" xlink:href="#ar"/><clipPath id="bp"><path d="M396.43,163.41c-1.36,17.92-8.06,28.58-6.28,52.76H414.4c-6.75-25.26-8.18-31.82-6.83-49.75C409,148.15,395.71,135,395.71,135l-8.48-2.13a45,45,0,0,1,9.2,30.56" fill="none"/></clipPath><linearGradient id="bq" y1="234.72" x2="1" y2="234.72" gradientTransform="matrix(0, 179.12, 179.12, 0, -41643.33, 134.29)" gradientUnits="userSpaceOnUse"><stop offset="0" stop-color="#f6f2e3"/><stop offset="0.44" stop-color="#eee6ca"/><stop offset="1" stop-color="#eee6ca"/></linearGradient><clipPath id="bs"><rect x="168.65" y="104.04" width="31.49" height="9.28" fill="none"/></clipPath><clipPath id="bt"><path d="M168.9,113.32l11.92-3.9s14.5.24,18.66-3-12.5-3.7-19.66,1.8l-11.17,4.06Z" fill="none"/></clipPath><mask id="bu" x="165.11" y="91.02" width="42.09" height="34.02" maskUnits="userSpaceOnUse"><rect x="167.92" y="96.81" width="36.47" height="22.44" transform="matrix(0.93, -0.36, 0.36, 0.93, -26.36, 73.92)" fill="url(#y)"/></mask><linearGradient id="bv" y1="234.72" x2="1" y2="234.72" gradientTransform="matrix(-142.73, 0, 0, 142.73, 310.78, -33392.69)" gradientUnits="userSpaceOnUse"><stop offset="0" stop-color="#fff"/><stop offset="0.44" stop-color="#fff"/><stop offset="1"/></linearGradient><clipPath id="bw"><rect x="168.91" y="98.7" width="8.45" height="7.79" fill="none"/></clipPath><clipPath id="bx"><rect x="160.57" y="98.7" width="8.45" height="7.79" fill="none"/></clipPath><clipPath id="by"><rect x="168.91" y="91.12" width="8.45" height="7.79" fill="none"/></clipPath><clipPath id="bz"><rect x="160.57" y="91.12" width="8.45" height="7.79" fill="none"/></clipPath><clipPath id="ca"><rect x="168.91" y="83.53" width="8.45" height="7.79" fill="none"/></clipPath><clipPath id="cb"><rect x="160.57" y="83.53" width="8.45" height="7.79" fill="none"/></clipPath><clipPath id="cc"><rect x="168.91" y="75.94" width="8.45" height="7.79" fill="none"/></clipPath><clipPath id="cd"><rect x="168.96" y="66.65" width="2.59" height="10.92" fill="none"/></clipPath><clipPath id="ce"><rect x="160.57" y="75.94" width="8.45" height="7.79" fill="none"/></clipPath><clipPath id="cf"><rect x="182.29" y="189.2" width="3.83" height="3.52" fill="none"/></clipPath><clipPath id="cg"><rect x="182.29" y="189.24" width="3.79" height="3.49" fill="none"/></clipPath><clipPath id="ch"><rect x="521.32" y="191.49" width="3.83" height="3.52" fill="none"/></clipPath><clipPath id="ci"><rect x="521.32" y="191.52" width="3.79" height="3.49" fill="none"/></clipPath><clipPath id="cj"><rect x="226.49" y="213.94" width="4.85" height="4.46" fill="none"/></clipPath><clipPath id="ck"><rect x="226.49" y="213.99" width="4.79" height="4.41" fill="none"/></clipPath><clipPath id="cl"><rect x="352.53" y="179.13" width="4.85" height="4.46" fill="none"/></clipPath><clipPath id="cm"><rect x="352.53" y="179.17" width="4.79" height="4.41" fill="none"/></clipPath><clipPath id="cn"><rect x="25.08" y="143.94" width="2.63" height="4.65" fill="none"/></clipPath><clipPath id="co"><rect x="25.08" y="143.94" width="2.48" height="4.63" fill="none"/></clipPath><clipPath id="cp"><rect x="256.68" y="116.21" width="4.32" height="4.37" fill="none"/></clipPath><clipPath id="cq"><rect x="256.68" y="116.21" width="4.28" height="4.31" fill="none"/></clipPath><clipPath id="cr"><rect x="134.05" y="184.45" width="4.32" height="4.37" fill="none"/></clipPath><clipPath id="cs"><rect x="134.05" y="184.45" width="4.28" height="4.3" fill="none"/></clipPath><clipPath id="ct"><rect x="279.45" y="117.43" width="2.92" height="3.13" fill="none"/></clipPath><clipPath id="cu"><rect x="279.45" y="117.46" width="2.86" height="3.11" fill="none"/></clipPath><clipPath id="cv"><rect x="315.32" y="197.5" width="2.93" height="3.13" fill="none"/></clipPath><clipPath id="cw"><rect x="315.32" y="197.53" width="2.86" height="3.11" fill="none"/></clipPath><clipPath id="cx"><rect x="240.38" y="133.86" width="1.84" height="4.18" fill="none"/></clipPath><clipPath id="cy"><rect x="240.38" y="133.86" width="1.18" height="4.18" fill="none"/></clipPath><clipPath id="cz"><rect x="536.04" y="167.51" width="4.32" height="4.37" fill="none"/></clipPath><clipPath id="da"><rect x="536.04" y="167.51" width="4.28" height="4.3" fill="none"/></clipPath><clipPath id="db"><rect x="141.01" y="94.24" width="20.71" height="6.1" fill="none"/></clipPath><clipPath id="dc"><path d="M141.18,100.34,149,97.78s9.54.15,12.28-2-8.22-2.43-12.93,1.18L141,99.66Z" fill="none"/></clipPath><mask id="dd" x="138.68" y="85.67" width="27.68" height="22.37" maskUnits="userSpaceOnUse"><rect x="140.53" y="89.48" width="23.98" height="14.75" transform="translate(-24.59 61.12) rotate(-21.01)" fill="url(#z)"/></mask><linearGradient id="de" y1="234.72" y2="234.72" gradientTransform="matrix(-93.86, 0, 0, 93.86, 234.47, -21932.61)" xlink:href="#bv"/><clipPath id="df"><rect x="141.18" y="90.73" width="5.56" height="5.12" fill="none"/></clipPath><clipPath id="dg"><rect x="135.7" y="90.73" width="5.56" height="5.12" fill="none"/></clipPath><clipPath id="dh"><rect x="141.18" y="85.74" width="5.56" height="5.12" fill="none"/></clipPath><clipPath id="di"><rect x="135.7" y="85.74" width="5.56" height="5.12" fill="none"/></clipPath><clipPath id="dj"><rect x="141.18" y="80.75" width="5.56" height="5.12" fill="none"/></clipPath><clipPath id="dk"><rect x="135.7" y="80.75" width="5.56" height="5.12" fill="none"/></clipPath><clipPath id="dl"><rect x="141.18" y="75.76" width="5.56" height="5.12" fill="none"/></clipPath><clipPath id="dm"><rect x="141.22" y="69.65" width="1.7" height="7.18" fill="none"/></clipPath><clipPath id="dn"><rect x="135.7" y="75.76" width="5.56" height="5.12" fill="none"/></clipPath><clipPath id="do"><rect x="82.65" y="136.18" width="22.73" height="6.7" fill="none"/></clipPath><clipPath id="dp"><path d="M82.82,142.88l8.61-2.82s10.46.17,13.47-2.15-9-2.68-14.19,1.29l-8.06,2.93Z" fill="none"/></clipPath><mask id="dq" x="80.09" y="126.78" width="30.38" height="24.55" maskUnits="userSpaceOnUse"><rect x="82.12" y="130.96" width="26.32" height="16.19" transform="translate(-43.52 43.4) rotate(-21.01)" fill="url(#c)"/></mask><linearGradient id="dr" y1="234.72" y2="234.72" gradientTransform="matrix(-103.02, 0, 0, 103.02, 185.24, -24041.03)" xlink:href="#bv"/><clipPath id="ds"><rect x="82.83" y="132.33" width="6.1" height="5.62" fill="none"/></clipPath><clipPath id="dt"><rect x="76.81" y="132.33" width="6.1" height="5.62" fill="none"/></clipPath><clipPath id="du"><rect x="82.83" y="126.85" width="6.1" height="5.62" fill="none"/></clipPath><clipPath id="dv"><rect x="76.81" y="126.85" width="6.1" height="5.62" fill="none"/></clipPath><clipPath id="dw"><rect x="82.83" y="121.37" width="6.1" height="5.62" fill="none"/></clipPath><clipPath id="dx"><rect x="76.81" y="121.37" width="6.1" height="5.62" fill="none"/></clipPath><clipPath id="dy"><rect x="82.83" y="115.9" width="6.1" height="5.62" fill="none"/></clipPath><clipPath id="dz"><rect x="82.87" y="109.19" width="1.87" height="7.88" fill="none"/></clipPath><clipPath id="ea"><rect x="76.81" y="115.9" width="6.1" height="5.62" fill="none"/></clipPath><clipPath id="eb"><rect x="519.28" y="144.55" width="24.08" height="7.1" fill="none"/></clipPath><clipPath id="ec"><path d="M519.47,151.64l9.12-3s11.08.18,14.27-2.29-9.56-2.83-15,1.37l-8.54,3.11Z" fill="none"/></clipPath><mask id="ed" x="516.57" y="134.59" width="32.18" height="26.01" maskUnits="userSpaceOnUse"><rect x="518.72" y="139.02" width="27.89" height="17.15" transform="translate(-17.5 200.79) rotate(-21.01)" fill="url(#d)"/></mask><linearGradient id="ee" y1="234.72" y2="234.72" gradientTransform="matrix(-109.13, 0, 0, 109.13, 627.96, -25466.7)" xlink:href="#bv"/><clipPath id="ef"><rect x="519.48" y="140.46" width="6.46" height="5.95" fill="none"/></clipPath><clipPath id="eg"><rect x="513.1" y="140.46" width="6.46" height="5.95" fill="none"/></clipPath><clipPath id="eh"><rect x="519.48" y="134.66" width="6.46" height="5.95" fill="none"/></clipPath><clipPath id="ei"><rect x="513.1" y="134.66" width="6.46" height="5.95" fill="none"/></clipPath><clipPath id="ej"><rect x="519.48" y="128.86" width="6.46" height="5.96" fill="none"/></clipPath><clipPath id="ek"><rect x="513.1" y="128.86" width="6.46" height="5.96" fill="none"/></clipPath><clipPath id="el"><rect x="519.48" y="123.06" width="6.46" height="5.95" fill="none"/></clipPath><clipPath id="em"><rect x="519.52" y="115.96" width="1.98" height="8.35" fill="none"/></clipPath><clipPath id="en"><rect x="513.1" y="123.06" width="6.46" height="5.95" fill="none"/></clipPath><clipPath id="eo"><rect x="491.12" y="146.91" width="28.8" height="8.49" fill="none"/></clipPath><clipPath id="ep"><path d="M491.34,155.39l10.9-3.57s13.26.22,17.07-2.73-11.43-3.38-18,1.64l-10.21,3.72Z" fill="none"/></clipPath><mask id="eq" x="487.88" y="135" width="38.49" height="31.11" maskUnits="userSpaceOnUse"><rect x="490.44" y="140.29" width="33.35" height="20.52" transform="translate(-20.26 191.82) rotate(-21.01)" fill="url(#e)"/></mask><linearGradient id="er" y1="234.72" y2="234.72" gradientTransform="matrix(-130.51, 0, 0, 130.51, 621.09, -30482)" xlink:href="#bv"/><clipPath id="es"><rect x="491.35" y="142.02" width="7.73" height="7.12" fill="none"/></clipPath><clipPath id="et"><rect x="483.72" y="142.02" width="7.73" height="7.12" fill="none"/></clipPath><clipPath id="eu"><rect x="491.35" y="135.09" width="7.73" height="7.12" fill="none"/></clipPath><clipPath id="ev"><rect x="483.72" y="135.09" width="7.73" height="7.12" fill="none"/></clipPath><clipPath id="ew"><rect x="491.35" y="128.15" width="7.73" height="7.12" fill="none"/></clipPath><clipPath id="ex"><rect x="483.72" y="128.15" width="7.73" height="7.12" fill="none"/></clipPath><clipPath id="ey"><rect x="491.35" y="121.21" width="7.73" height="7.12" fill="none"/></clipPath><clipPath id="ez"><rect x="491.4" y="112.71" width="2.37" height="9.99" fill="none"/></clipPath><clipPath id="fa"><rect x="483.72" y="121.21" width="7.73" height="7.12" fill="none"/></clipPath><clipPath id="fb"><rect x="34.83" y="120.98" width="9.84" height="3.93" fill="none"/></clipPath><clipPath id="fc"><path d="M36.3,124.91s9.08-.14,8.33-2.89-14.17.53-8.33,2.89" fill="none"/></clipPath><mask id="fd" x="29.24" y="116.04" width="17.36" height="12.1" maskUnits="userSpaceOnUse"><rect x="30.02" y="117.69" width="15.8" height="8.81" transform="translate(-26.17 11.47) rotate(-12.83)" fill="url(#f)"/></mask><linearGradient id="fe" y1="234.68" y2="234.68" gradientTransform="matrix(-30.77, 0, 0, 30.77, 67.54, -7098.71)" xlink:href="#bv"/><clipPath id="ff"><rect x="32.68" y="109.2" width="7.58" height="15.75" fill="none"/></clipPath><clipPath id="fg"><rect x="371.05" y="127.12" width="9.84" height="3.93" fill="none"/></clipPath><clipPath id="fh"><path d="M372.51,131.05s9.09-.13,8.34-2.88-14.17.52-8.34,2.88" fill="none"/></clipPath><mask id="fi" x="365.46" y="122.19" width="17.36" height="12.1" maskUnits="userSpaceOnUse"><rect x="366.24" y="123.83" width="15.8" height="8.81" transform="translate(-19.14 86.29) rotate(-12.83)" fill="url(#g)"/></mask><linearGradient id="fj" y1="234.68" y2="234.68" gradientTransform="matrix(-30.77, 0, 0, 30.77, 403.76, -7092.54)" xlink:href="#bv"/><clipPath id="fk"><rect x="368.89" y="115.34" width="7.58" height="15.75" fill="none"/></clipPath><clipPath id="fl"><rect x="364.05" y="142.12" width="9.84" height="3.93" fill="none"/></clipPath><clipPath id="fm"><path d="M365.51,146.05s9.09-.13,8.34-2.88-14.17.52-8.34,2.88" fill="none"/></clipPath><mask id="fn" x="358.46" y="137.19" width="17.36" height="12.1" maskUnits="userSpaceOnUse"><rect x="359.24" y="138.83" width="15.8" height="8.81" transform="translate(-22.64 85.11) rotate(-12.83)" fill="url(#h)"/></mask><linearGradient id="fo" y1="234.68" y2="234.68" gradientTransform="matrix(-30.77, 0, 0, 30.77, 396.76, -7077.54)" xlink:href="#bv"/><clipPath id="fp"><rect x="361.89" y="130.34" width="7.58" height="15.75" fill="none"/></clipPath><clipPath id="fq"><rect x="379.77" y="154.14" width="9.84" height="3.93" fill="none"/></clipPath><clipPath id="fr"><path d="M381.24,158.07s9.08-.14,8.33-2.89-14.17.53-8.33,2.89" fill="none"/></clipPath><mask id="fs" x="374.18" y="149.2" width="17.36" height="12.1" maskUnits="userSpaceOnUse"><rect x="374.97" y="150.85" width="15.8" height="8.81" transform="translate(-24.92 88.91) rotate(-12.83)" fill="url(#i)"/></mask><linearGradient id="ft" y1="234.68" y2="234.68" gradientTransform="matrix(-30.77, 0, 0, 30.77, 412.49, -7065.52)" xlink:href="#bv"/><clipPath id="fu"><rect x="377.62" y="142.36" width="7.58" height="15.75" fill="none"/></clipPath><clipPath id="fv"><rect x="154.02" y="116.71" width="32.52" height="3.91" fill="none"/></clipPath><clipPath id="fw"><polygon points="154.02 120.62 176.86 120.62 186.54 116.71 162.25 116.71 154.02 120.62" fill="none"/></clipPath><mask id="fx" x="153.06" y="108.71" width="34.44" height="19.92" maskUnits="userSpaceOnUse"><rect x="154.06" y="112.63" width="32.44" height="12.06" transform="translate(-24.59 47.24) rotate(-14.74)" fill="url(#j)"/></mask><linearGradient id="fy" y1="234.73" y2="234.73" gradientTransform="matrix(-24.26, 0, 0, 24.26, 198.26, -5575.87)" xlink:href="#bv"/><clipPath id="fz"><rect x="480.22" y="152.6" width="27.73" height="3.33" fill="none"/></clipPath><clipPath id="ga"><polygon points="480.22 155.94 499.7 155.94 507.95 152.6 487.24 152.6 480.22 155.94" fill="none"/></clipPath><mask id="gb" x="479.4" y="145.78" width="29.37" height="16.98" maskUnits="userSpaceOnUse"><rect x="480.25" y="149.13" width="27.66" height="10.28" transform="matrix(0.97, -0.25, 0.25, 0.97, -22.99, 130.82)" fill="url(#k)"/></mask><linearGradient id="gc" y1="234.73" y2="234.73" gradientTransform="matrix(-20.69, 0, 0, 20.69, 517.95, -4701.44)" xlink:href="#bv"/><clipPath id="gd"><rect x="462.96" y="151.9" width="30.73" height="3.7" fill="none"/></clipPath><clipPath id="ge"><polygon points="462.96 155.59 484.55 155.59 493.69 151.9 470.74 151.9 462.96 155.59" fill="none"/></clipPath><mask id="gf" x="462.05" y="144.34" width="32.54" height="18.82" maskUnits="userSpaceOnUse"><rect x="463" y="148.05" width="30.65" height="11.39" transform="translate(-23.38 126.79) rotate(-14.74)" fill="url(#l)"/></mask><linearGradient id="gg" y1="234.73" y2="234.73" gradientTransform="matrix(-22.92, 0, 0, 22.92, 504.77, -5227.16)" xlink:href="#bv"/><clipPath id="gh"><rect x="282.82" y="136.03" width="4.82" height="1.58" fill="none"/></clipPath><clipPath id="gi"><path d="M287.64,136.82c0,.43-1.08.79-2.41.79s-2.41-.36-2.41-.79,1.08-.79,2.41-.79,2.41.35,2.41.79" fill="none"/></clipPath><mask id="gj" x="282.59" y="135.32" width="5.29" height="3" maskUnits="userSpaceOnUse"><rect x="282.73" y="135.68" width="5" height="2.28" transform="translate(-17.26 44.22) rotate(-8.61)" fill="url(#n)"/></mask><linearGradient id="gk" y1="234.72" y2="234.72" gradientTransform="matrix(-8.43, 0, 0, 8.43, 292.81, -1842.07)" xlink:href="#bv"/><clipPath id="gl"><rect x="294.65" y="132.05" width="4.82" height="1.58" fill="none"/></clipPath><clipPath id="gm"><path d="M299.48,132.84c0,.43-1.08.79-2.41.79s-2.42-.36-2.42-.79,1.08-.79,2.42-.79,2.41.35,2.41.79" fill="none"/></clipPath><mask id="gn" x="294.42" y="131.34" width="5.29" height="3" maskUnits="userSpaceOnUse"><rect x="294.56" y="131.7" width="5" height="2.28" transform="translate(-16.53 45.95) rotate(-8.61)" fill="url(#o)"/></mask><linearGradient id="go" y1="234.72" y2="234.72" gradientTransform="matrix(-8.43, 0, 0, 8.43, 304.64, -1846.05)" xlink:href="#bv"/><clipPath id="gp"><rect x="117.65" y="125.26" width="4.82" height="1.58" fill="none"/></clipPath><clipPath id="gq"><path d="M122.48,126.05c0,.44-1.08.79-2.41.79s-2.42-.35-2.42-.79,1.08-.79,2.42-.79,2.41.36,2.41.79" fill="none"/></clipPath><mask id="gr" x="117.42" y="124.55" width="5.29" height="3" maskUnits="userSpaceOnUse"><rect x="117.56" y="124.91" width="5" height="2.28" transform="translate(-17.51 19.39) rotate(-8.61)" fill="url(#p)"/></mask><linearGradient id="gs" y1="234.72" y2="234.72" gradientTransform="matrix(-8.43, 0, 0, 8.43, 127.64, -1853)" xlink:href="#bv"/><clipPath id="gt"><rect x="472.98" y="97.76" width="4.82" height="1.58" fill="none"/></clipPath><clipPath id="gu"><path d="M477.8,98.55c0,.44-1.08.79-2.41.79S473,99,473,98.55s1.07-.79,2.41-.79,2.41.36,2.41.79" fill="none"/></clipPath><mask id="gv" x="472.74" y="97.05" width="5.29" height="3" maskUnits="userSpaceOnUse"><rect x="472.88" y="97.41" width="5" height="2.28" transform="translate(-9.39 72.25) rotate(-8.61)" fill="url(#q)"/></mask><linearGradient id="gw" y1="234.72" y2="234.72" gradientTransform="matrix(-8.43, 0, 0, 8.43, 482.96, -1880.34)" xlink:href="#bv"/><clipPath id="gx"><rect x="482.89" y="92.18" width="3.62" height="1.18" fill="none"/></clipPath><clipPath id="gy"><path d="M486.51,92.78c0,.32-.81.59-1.81.59s-1.81-.27-1.81-.59.81-.6,1.81-.6,1.81.27,1.81.6" fill="none"/></clipPath><mask id="gz" x="482.72" y="91.65" width="3.97" height="2.25" maskUnits="userSpaceOnUse"><rect x="482.82" y="91.92" width="3.75" height="1.71" transform="translate(-8.43 73.58) rotate(-8.61)" fill="url(#r)"/></mask><linearGradient id="ha" y1="234.72" y2="234.72" gradientTransform="matrix(-6.32, 0, 0, 6.32, 490.38, -1391.07)" xlink:href="#bv"/><clipPath id="hb"><rect x="505.14" y="79.23" width="35.89" height="11.46" fill="none"/></clipPath><clipPath id="hc"><path d="M509.11,90.58l14-4.51S534.81,86,540,81.91s-10.38-3.86-19.29,3l-15.56,5.73Z" fill="none"/></clipPath><mask id="hd" x="500.84" y="64.45" width="48.63" height="39.64" maskUnits="userSpaceOnUse"><rect x="504.16" y="71.1" width="41.98" height="26.34" transform="translate(4.7 193.88) rotate(-21.01)" fill="url(#s)"/></mask><linearGradient id="he" y1="234.72" y2="234.72" gradientTransform="matrix(-165.86, 0, 0, 165.86, 669.91, -38846.5)" xlink:href="#bv"/></defs><title>bg_main_bottom</title><g clip-path="url(#aa)"><g clip-path="url(#ab)"><g clip-path="url(#ac)"><rect x="219.57" y="68.95" width="337.91" height="94.85" fill="url(#ad)"/></g><g clip-path="url(#ae)"><rect x="219.57" y="90.79" width="337.91" height="94.85" fill="url(#af)"/></g><g clip-path="url(#ag)"><rect x="219.57" y="112.63" width="337.91" height="94.85" fill="url(#ah)"/></g><g clip-path="url(#ai)"><rect y="85.03" width="557.47" height="149.69" fill="url(#aj)"/></g><g clip-path="url(#ab)"><g opacity="0.3"><g clip-path="url(#al)"><g clip-path="url(#am)"><g mask="url(#an)"><rect x="128.74" width="174.78" height="46.71" fill="url(#ao)"/></g></g></g></g></g><g clip-path="url(#ap)"><g mask="url(#aq)"><rect x="147.68" y="40.59" width="3.61" height="0.85" transform="translate(-2.29 9.51) rotate(-3.62)" fill="url(#ar)"/></g></g><g clip-path="url(#as)"><g mask="url(#at)"><rect x="149.08" y="39.18" width="0.59" height="3.57" transform="translate(-0.35 1.3) rotate(-0.5)" fill="url(#au)"/></g></g><g clip-path="url(#av)"><g mask="url(#aw)"><rect x="148.32" y="39.9" width="2.2" height="2.17" transform="translate(-2.26 9.37) rotate(-3.57)" fill="url(#ax)"/></g></g><g clip-path="url(#ab)"><g opacity="0.3"><g clip-path="url(#az)"><g clip-path="url(#ba)"><g mask="url(#bb)"><rect x="148.33" y="39.92" width="2.16" height="2.11" transform="translate(101.32 188.25) rotate(-87.25)" fill="url(#bc)"/></g></g><g opacity="0.2"><g clip-path="url(#az)"><g clip-path="url(#be)"><g mask="url(#bf)"><rect x="148.26" y="39.85" width="2.32" height="2.26" transform="translate(101.33 188.26) rotate(-87.25)" fill="url(#bg)"/></g></g></g></g></g></g><g opacity="0.1"><g clip-path="url(#bh)"><g clip-path="url(#bi)"><g mask="url(#bj)"><rect x="148.08" y="39.68" width="2.66" height="2.59" transform="translate(101.32 188.25) rotate(-87.25)" fill="url(#bk)"/></g></g><g opacity="0.2"><g clip-path="url(#bh)"><g clip-path="url(#bm)"><g mask="url(#bn)"><rect x="147.99" y="39.59" width="2.85" height="2.79" transform="translate(101.33 188.27) rotate(-87.25)" fill="url(#bo)"/></g></g></g></g></g></g></g><g clip-path="url(#bp)"><rect x="387.23" y="132.85" width="27.17" height="83.32" fill="url(#bq)"/></g><g clip-path="url(#ab)"><g opacity="0.2"><g clip-path="url(#bs)"><g clip-path="url(#bt)"><g mask="url(#bu)"><rect x="167.92" y="96.81" width="36.47" height="22.44" transform="matrix(0.93, -0.36, 0.36, 0.93, -26.36, 73.92)" fill="url(#bv)"/></g></g></g></g><rect x="168.62" y="75.75" width="0.37" height="37.63" fill="#825529"/><polygon points="169.27 113.38 168.9 113.32 168.9 75.7 169.27 75.29 169.27 113.38" fill="#724318"/><path d="M177.28,98.68s-.83,8.1-8.4,7.72l0-.05c-.42-7,8.39-7.72,8.39-7.72" fill="#10663b"/><g opacity="0.5"><g clip-path="url(#bw)"><path d="M177.36,98.75l-.05,0h0l-8.39,7.72h0l.05,0c7.57.38,8.4-7.73,8.4-7.73" fill="#054723"/></g></g><path d="M160.65,98.68s.83,8.1,8.39,7.72l.06-.05c.42-7-8.4-7.72-8.4-7.72" fill="#10663b"/><g opacity="0.5"><g clip-path="url(#bx)"><path d="M160.56,98.75l.06,0h0l8.39,7.72h0l-.06,0c-7.56.38-8.4-7.73-8.4-7.73" fill="#054723"/></g></g><path d="M177.28,91.09s-.83,8.11-8.4,7.73l0-.06c-.42-7,8.39-7.72,8.39-7.72" fill="#24963d"/><g opacity="0.5"><g clip-path="url(#by)"><path d="M177.36,91.17l-.05,0h0l-8.39,7.72h0l.05,0c7.57.38,8.4-7.72,8.4-7.72" fill="#054723"/></g></g><path d="M160.65,91.09s.83,8.11,8.39,7.73l.06-.06c.42-7-8.4-7.72-8.4-7.72" fill="#24963d"/><g opacity="0.5"><g clip-path="url(#bz)"><path d="M160.56,91.17l.06,0h0L169,98.84h0l-.06,0c-7.56.38-8.4-7.72-8.4-7.72" fill="#054723"/></g></g><path d="M177.28,83.5s-.83,8.11-8.4,7.73l0,0c-.42-7,8.39-7.73,8.39-7.73" fill="#10663b"/><g opacity="0.5"><g clip-path="url(#ca)"><path d="M177.36,83.58l-.05,0h0l-8.39,7.72h0l.05.06c7.57.38,8.4-7.73,8.4-7.73" fill="#054723"/></g></g><path d="M160.65,83.5s.83,8.11,8.39,7.73l.06,0c.42-7-8.4-7.73-8.4-7.73" fill="#10663b"/><g opacity="0.5"><g clip-path="url(#cb)"><path d="M160.56,83.58l.06,0h0L169,91.25h0l-.06.06c-7.56.38-8.4-7.73-8.4-7.73" fill="#054723"/></g></g><path d="M177.28,75.92s-.83,8.11-8.4,7.72l0,0c-.42-7,8.39-7.72,8.39-7.72" fill="#24963d"/><g opacity="0.5"><g clip-path="url(#cc)"><path d="M177.36,76l-.05,0h0l-8.39,7.72h0l.05,0c7.57.38,8.4-7.73,8.4-7.73" fill="#054723"/></g></g><path d="M168.92,66.65s5.65,6.27,0,10.92h-.08c-5.64-4.65,0-10.92,0-10.92" fill="#10663b"/><g opacity="0.5"><g clip-path="url(#cd)"><path d="M169,66.65H169V77.57H169c5.64-4.65,0-10.92,0-10.92" fill="#054723"/></g></g><path d="M160.65,75.92s.83,8.11,8.39,7.72l.06,0c.42-7-8.4-7.72-8.4-7.72" fill="#24963d"/><g opacity="0.5"><g clip-path="url(#ce)"><path d="M160.56,76l.06,0h0L169,83.66h0l-.06,0c-7.56.38-8.4-7.73-8.4-7.73" fill="#054723"/></g></g><g opacity="0.6"><g clip-path="url(#cf)"><path d="M182.33,189.23s.37,3.63,3.76,3.46l0,0c.19-3.11-3.76-3.46-3.76-3.46" fill="#10663b"/><g opacity="0.5"><g clip-path="url(#cg)"><path d="M182.29,189.26l0,0h0l3.76,3.46h0l0,0c-3.39.17-3.76-3.46-3.76-3.46" fill="#054723"/></g></g></g></g><g opacity="0.6"><g clip-path="url(#ch)"><path d="M521.35,191.51s.38,3.63,3.77,3.46l0,0c.19-3.12-3.76-3.46-3.76-3.46" fill="#10663b"/><g opacity="0.5"><g clip-path="url(#ci)"><path d="M521.32,191.55l0,0h0L525.1,195h0l0,0c-3.39.17-3.76-3.46-3.76-3.46" fill="#054723"/></g></g></g></g><g opacity="0.6"><g clip-path="url(#cj)"><path d="M226.53,214s.48,4.6,4.76,4.38l0,0c.24-3.94-4.76-4.38-4.76-4.38" fill="#10663b"/><g opacity="0.5"><g clip-path="url(#ck)"><path d="M226.49,214l0,0h0l4.76,4.37h0l0,0c-4.29.22-4.76-4.37-4.76-4.37" fill="#054723"/></g></g></g></g><g opacity="0.6"><g clip-path="url(#cl)"><path d="M352.57,179.16s.48,4.59,4.76,4.38l0,0c.24-3.95-4.75-4.38-4.75-4.38" fill="#10663b"/><g opacity="0.5"><g clip-path="url(#cm)"><path d="M352.53,179.2l0,0h0l4.76,4.38h0l0,0c-4.29.22-4.76-4.38-4.76-4.38" fill="#054723"/></g></g></g></g><g opacity="0.6"><g clip-path="url(#cn)"><path d="M27.57,144s-3.36,1.42-2.21,4.61l0,0c3-.73,2.21-4.61,2.21-4.61" fill="#10663b"/><g opacity="0.5"><g clip-path="url(#co)"><path d="M27.53,143.94l0,0h0l-2.21,4.6h0c-1.16-3.19,2.21-4.61,2.21-4.61" fill="#054723"/></g></g></g></g><g opacity="0.5"><g clip-path="url(#cp)"><path d="M261,116.26s-4.3.27-4.25,4.28l0,0c3.67.36,4.26-4.28,4.26-4.28" fill="#24963d"/><g opacity="0.5"><g clip-path="url(#cq)"><path d="M260.93,116.22l0,0h0l-4.26,4.27h0l0,0c-.05-4,4.25-4.27,4.25-4.27" fill="#054723"/></g></g></g></g><g opacity="0.5"><g clip-path="url(#cr)"><path d="M138.35,184.49s-4.3.27-4.26,4.27l0,0c3.66.36,4.25-4.28,4.25-4.28" fill="#24963d"/><g opacity="0.5"><g clip-path="url(#cs)"><path d="M138.31,184.45l0,0h0l-4.25,4.27h0l0,0c0-4,4.26-4.27,4.26-4.27" fill="#054723"/></g></g></g></g><g opacity="0.5"><g clip-path="url(#ct)"><path d="M279.49,117.45s.05,3,2.84,3.09l0,0c.37-2.54-2.84-3.09-2.84-3.09" fill="#24963d"/><g opacity="0.5"><g clip-path="url(#cu)"><path d="M279.45,117.47h0l2.84,3.09h0l0,0c-2.79-.1-2.85-3.1-2.85-3.1" fill="#054723"/></g></g></g></g><g opacity="0.5"><g clip-path="url(#cv)"><path d="M315.35,197.52s.06,3,2.84,3.09h0c.37-2.54-2.84-3.1-2.84-3.1" fill="#24963d"/><g opacity="0.5"><g clip-path="url(#cw)"><path d="M315.32,197.55l0,0h0l2.84,3.09h0l0,0c-2.79-.09-2.84-3.09-2.84-3.09" fill="#054723"/></g></g></g></g><g opacity="0.5"><g clip-path="url(#cx)"><path d="M241.58,133.87s-2.24,2-.49,4.17h0c2.16-1.38.49-4.17.49-4.17" fill="#24963d"/><g opacity="0.5"><g clip-path="url(#cy)"><path d="M241.54,133.86h0l-.49,4.17h0c-1.75-2.17.49-4.17.49-4.17" fill="#054723"/></g></g></g></g><g opacity="0.5"><g clip-path="url(#cz)"><path d="M540.33,167.56s-4.3.27-4.26,4.27l0,0c3.67.37,4.26-4.27,4.26-4.27" fill="#24963d"/><g opacity="0.5"><g clip-path="url(#da)"><path d="M540.29,167.51l0,0h0l-4.26,4.27h0l0,0c0-4,4.25-4.28,4.25-4.28" fill="#054723"/></g></g></g></g><g opacity="0.2"><g clip-path="url(#db)"><g clip-path="url(#dc)"><g mask="url(#dd)"><rect x="140.53" y="89.48" width="23.98" height="14.75" transform="translate(-24.59 61.12) rotate(-21.01)" fill="url(#de)"/></g></g></g></g><rect x="140.99" y="75.63" width="0.24" height="24.74" fill="#825529"/><polygon points="141.42 100.38 141.18 100.34 141.18 75.6 141.42 75.33 141.42 100.38" fill="#724318"/><path d="M146.69,90.71s-.55,5.33-5.52,5.08l0,0c-.27-4.58,5.52-5.08,5.52-5.08" fill="#10663b"/><g opacity="0.5"><g clip-path="url(#df)"><path d="M146.74,90.76l0,0h0l-5.52,5.07h0l0,0c5,.25,5.52-5.08,5.52-5.08" fill="#054723"/></g></g><path d="M135.75,90.71s.55,5.33,5.52,5.08l0,0c.27-4.58-5.52-5.08-5.52-5.08" fill="#10663b"/><g opacity="0.5"><g clip-path="url(#dg)"><path d="M135.7,90.76l0,0h0l5.52,5.07h0l0,0c-5,.25-5.52-5.08-5.52-5.08" fill="#054723"/></g></g><path d="M146.69,85.72s-.55,5.33-5.52,5.08l0,0c-.27-4.58,5.52-5.08,5.52-5.08" fill="#24963d"/><g opacity="0.5"><g clip-path="url(#dh)"><path d="M146.74,85.77l0,0h0l-5.52,5.07h0l0,0c5,.25,5.52-5.08,5.52-5.08" fill="#054723"/></g></g><path d="M135.75,85.72s.55,5.33,5.52,5.08l0,0c.27-4.58-5.52-5.08-5.52-5.08" fill="#24963d"/><g opacity="0.5"><g clip-path="url(#di)"><path d="M135.7,85.77l0,0h0l5.52,5.07h0l0,0c-5,.25-5.52-5.08-5.52-5.08" fill="#054723"/></g></g><path d="M146.69,80.73s-.55,5.33-5.52,5.08l0,0c-.27-4.58,5.52-5.08,5.52-5.08" fill="#10663b"/><g opacity="0.5"><g clip-path="url(#dj)"><path d="M146.74,80.78l0,0h0l-5.52,5.08h0l0,0c5,.25,5.52-5.08,5.52-5.08" fill="#054723"/></g></g><path d="M135.75,80.73s.55,5.33,5.52,5.08l0,0c.27-4.58-5.52-5.08-5.52-5.08" fill="#10663b"/><g opacity="0.5"><g clip-path="url(#dk)"><path d="M135.7,80.78l0,0h0l5.52,5.08h0l0,0c-5,.25-5.52-5.08-5.52-5.08" fill="#054723"/></g></g><path d="M146.69,75.74s-.55,5.34-5.52,5.08l0,0c-.27-4.58,5.52-5.08,5.52-5.08" fill="#24963d"/><g opacity="0.5"><g clip-path="url(#dl)"><path d="M146.74,75.79l0,0h0l-5.52,5.08h0l0,0c5,.26,5.52-5.08,5.52-5.08" fill="#054723"/></g></g><path d="M141.19,69.65s3.71,4.12,0,7.18h-.05c-3.71-3.06,0-7.18,0-7.18" fill="#10663b"/><g opacity="0.5"><g clip-path="url(#dm)"><path d="M141.27,69.65h-.05v7.18h.05c3.71-3.06,0-7.18,0-7.18" fill="#054723"/></g></g><path d="M135.75,75.74s.55,5.34,5.52,5.08l0,0c.27-4.58-5.52-5.08-5.52-5.08" fill="#24963d"/><g opacity="0.5"><g clip-path="url(#dn)"><path d="M135.7,75.79l0,0h0l5.52,5.08h0l0,0c-5,.26-5.52-5.08-5.52-5.08" fill="#054723"/></g></g><g opacity="0.2"><g clip-path="url(#do)"><g clip-path="url(#dp)"><g mask="url(#dq)"><rect x="82.12" y="130.96" width="26.32" height="16.19" transform="translate(-43.52 43.4) rotate(-21.01)" fill="url(#dr)"/></g></g></g></g><rect x="82.62" y="115.76" width="0.27" height="27.16" fill="#825529"/><polygon points="83.09 142.92 82.82 142.88 82.82 115.72 83.09 115.43 83.09 142.92" fill="#724318"/><path d="M88.87,132.31s-.6,5.85-6.06,5.57l0,0c-.3-5,6.06-5.58,6.06-5.58" fill="#10663b"/><g opacity="0.5"><g clip-path="url(#ds)"><path d="M88.93,132.36l0,0h0l-6.06,5.57h0l0,0c5.46.27,6.06-5.58,6.06-5.58" fill="#054723"/></g></g><path d="M76.87,132.31s.6,5.85,6.06,5.57l0,0c.3-5-6.06-5.58-6.06-5.58" fill="#10663b"/><g opacity="0.5"><g clip-path="url(#dt)"><path d="M76.81,132.36l0,0h0l6.06,5.57h0l0,0c-5.46.27-6.06-5.58-6.06-5.58" fill="#054723"/></g></g><path d="M88.87,126.83s-.6,5.85-6.06,5.58l0,0c-.3-5,6.06-5.58,6.06-5.58" fill="#24963d"/><g opacity="0.5"><g clip-path="url(#du)"><path d="M88.93,126.89l0,0h0l-6.06,5.57h0l0,0c5.46.28,6.06-5.57,6.06-5.57" fill="#054723"/></g></g><path d="M76.87,126.83s.6,5.85,6.06,5.58l0,0c.3-5-6.06-5.58-6.06-5.58" fill="#24963d"/><g opacity="0.5"><g clip-path="url(#dv)"><path d="M76.81,126.89l0,0h0l6.06,5.57h0l0,0c-5.46.28-6.06-5.57-6.06-5.57" fill="#054723"/></g></g><path d="M88.87,121.36s-.6,5.85-6.06,5.57l0,0c-.3-5,6.06-5.57,6.06-5.57" fill="#10663b"/><g opacity="0.5"><g clip-path="url(#dw)"><path d="M88.93,121.41l0,0h0L82.83,127h0l0,0c5.46.27,6.06-5.58,6.06-5.58" fill="#054723"/></g></g><path d="M76.87,121.36s.6,5.85,6.06,5.57l0,0c.3-5-6.06-5.57-6.06-5.57" fill="#10663b"/><g opacity="0.5"><g clip-path="url(#dx)"><path d="M76.81,121.41l0,0h0L82.91,127h0l0,0c-5.46.27-6.06-5.58-6.06-5.58" fill="#054723"/></g></g><path d="M88.87,115.88s-.6,5.85-6.06,5.58l0,0c-.3-5,6.06-5.58,6.06-5.58" fill="#24963d"/><g opacity="0.5"><g clip-path="url(#dy)"><path d="M88.93,115.94l0,0h0l-6.06,5.57h0l0,0c5.46.28,6.06-5.57,6.06-5.57" fill="#054723"/></g></g><path d="M82.84,109.19s4.08,4.53,0,7.89h0c-4.08-3.36,0-7.89,0-7.89" fill="#10663b"/><g opacity="0.5"><g clip-path="url(#dz)"><path d="M82.93,109.19h-.06v7.88h.06c4.07-3.36,0-7.89,0-7.89" fill="#054723"/></g></g><path d="M76.87,115.88s.6,5.85,6.06,5.58l0,0c.3-5-6.06-5.58-6.06-5.58" fill="#24963d"/><g opacity="0.5"><g clip-path="url(#ea)"><path d="M76.81,115.94l0,0h0l6.06,5.57h0l0,0c-5.46.28-6.06-5.57-6.06-5.57" fill="#054723"/></g></g><g opacity="0.2"><g clip-path="url(#eb)"><g clip-path="url(#ec)"><g mask="url(#ed)"><rect x="518.72" y="139.02" width="27.89" height="17.15" transform="translate(-17.5 200.79) rotate(-21.01)" fill="url(#ee)"/></g></g></g></g><rect x="519.26" y="122.91" width="0.28" height="28.77" fill="#825529"/><polygon points="519.75 151.68 519.47 151.64 519.47 122.87 519.75 122.56 519.75 151.68" fill="#724318"/><path d="M525.88,140.44s-.64,6.2-6.42,5.91l0,0c-.32-5.32,6.42-5.91,6.42-5.91" fill="#10663b"/><g opacity="0.5"><g clip-path="url(#ef)"><path d="M525.94,140.5l0,0h0l-6.42,5.91h0l0,0c5.79.29,6.42-5.91,6.42-5.91" fill="#054723"/></g></g><path d="M513.16,140.44s.64,6.2,6.43,5.91l0,0c.31-5.32-6.42-5.91-6.42-5.91" fill="#10663b"/><g opacity="0.5"><g clip-path="url(#eg)"><path d="M513.1,140.5l0,0h0l6.41,5.91h0l0,0c-5.78.29-6.42-5.91-6.42-5.91" fill="#054723"/></g></g><path d="M525.88,134.64s-.64,6.2-6.42,5.91l0,0c-.32-5.32,6.42-5.91,6.42-5.91" fill="#24963d"/><g opacity="0.5"><g clip-path="url(#eh)"><path d="M525.94,134.7l0,0h0l-6.42,5.91h0l0,0c5.79.29,6.42-5.91,6.42-5.91" fill="#054723"/></g></g><path d="M513.16,134.64s.64,6.2,6.43,5.91l0,0c.31-5.32-6.42-5.91-6.42-5.91" fill="#24963d"/><g opacity="0.5"><g clip-path="url(#ei)"><path d="M513.1,134.7l0,0h0l6.41,5.91h0l0,0c-5.78.29-6.42-5.91-6.42-5.91" fill="#054723"/></g></g><path d="M525.88,128.84s-.64,6.2-6.42,5.91l0,0c-.32-5.32,6.42-5.91,6.42-5.91" fill="#10663b"/><g opacity="0.5"><g clip-path="url(#ej)"><path d="M525.94,128.9l0,0h0l-6.42,5.9h0l0,0c5.79.29,6.42-5.91,6.42-5.91" fill="#054723"/></g></g><path d="M513.16,128.84s.64,6.2,6.43,5.91l0,0c.31-5.32-6.42-5.91-6.42-5.91" fill="#10663b"/><g opacity="0.5"><g clip-path="url(#ek)"><path d="M513.1,128.9l0,0h0l6.41,5.9h0l0,0c-5.78.29-6.42-5.91-6.42-5.91" fill="#054723"/></g></g><path d="M525.88,123s-.64,6.2-6.42,5.91l0,0c-.32-5.32,6.42-5.91,6.42-5.91" fill="#24963d"/><g opacity="0.5"><g clip-path="url(#el)"><path d="M525.94,123.1l0,0h0l-6.42,5.9h0l0,0c5.79.29,6.42-5.91,6.42-5.91" fill="#054723"/></g></g><path d="M519.49,116s4.32,4.79,0,8.35h-.06c-4.31-3.56,0-8.35,0-8.35" fill="#10663b"/><g opacity="0.5"><g clip-path="url(#em)"><path d="M519.58,116h-.06v8.35h.06c4.32-3.56,0-8.35,0-8.35" fill="#054723"/></g></g><path d="M513.16,123s.64,6.2,6.43,5.91l0,0c.31-5.32-6.42-5.91-6.42-5.91" fill="#24963d"/><g opacity="0.5"><g clip-path="url(#en)"><path d="M513.1,123.1l0,0h0l6.41,5.9h0l0,0c-5.78.29-6.42-5.91-6.42-5.91" fill="#054723"/></g></g><g opacity="0.2"><g clip-path="url(#eo)"><g clip-path="url(#ep)"><g mask="url(#eq)"><rect x="490.44" y="140.29" width="33.35" height="20.52" transform="translate(-20.26 191.82) rotate(-21.01)" fill="url(#er)"/></g></g></g></g><rect x="491.09" y="121.03" width="0.34" height="34.41" fill="#825529"/><polygon points="491.68 155.44 491.34 155.39 491.34 120.99 491.68 120.62 491.68 155.44" fill="#724318"/><path d="M499,142s-.76,7.41-7.68,7.06l-.05,0C490.9,142.65,499,142,499,142" fill="#10663b"/><g opacity="0.5"><g clip-path="url(#es)"><path d="M499.08,142.07l-.05,0h0l-7.68,7.06h0l0,0c6.92.35,7.68-7.06,7.68-7.06" fill="#054723"/></g></g><path d="M483.8,142s.76,7.41,7.68,7.06l0,0c.38-6.37-7.68-7.07-7.68-7.07" fill="#10663b"/><g opacity="0.5"><g clip-path="url(#et)"><path d="M483.72,142.07l0,0h0l7.67,7.06h0l-.05,0c-6.92.35-7.68-7.06-7.68-7.06" fill="#054723"/></g></g><path d="M499,135.06s-.76,7.42-7.68,7.07l-.05,0C490.9,135.72,499,135,499,135" fill="#24963d"/><g opacity="0.5"><g clip-path="url(#eu)"><path d="M499.08,135.13l-.05,0h0l-7.68,7h0l0,0c6.92.35,7.68-7.07,7.68-7.07" fill="#054723"/></g></g><path d="M483.8,135.06s.76,7.42,7.68,7.07l0,0c.38-6.36-7.68-7.06-7.68-7.06" fill="#24963d"/><g opacity="0.5"><g clip-path="url(#ev)"><path d="M483.72,135.13l0,0h0l7.67,7h0l-.05,0c-6.92.35-7.68-7.07-7.68-7.07" fill="#054723"/></g></g><path d="M499,128.13s-.76,7.41-7.68,7.06l-.05-.05c-.38-6.36,7.67-7.06,7.67-7.06" fill="#10663b"/><g opacity="0.5"><g clip-path="url(#ew)"><path d="M499.08,128.2l-.05,0h0l-7.68,7.06h0l0,0c6.92.35,7.68-7.06,7.68-7.06" fill="#054723"/></g></g><path d="M483.8,128.13s.76,7.41,7.68,7.06l0-.05c.38-6.36-7.68-7.06-7.68-7.06" fill="#10663b"/><g opacity="0.5"><g clip-path="url(#ex)"><path d="M483.72,128.2l0,0h0l7.67,7.06h0l-.05,0c-6.92.35-7.68-7.06-7.68-7.06" fill="#054723"/></g></g><path d="M499,121.19s-.76,7.41-7.68,7.06l-.05,0c-.38-6.37,7.67-7.07,7.67-7.07" fill="#24963d"/><g opacity="0.5"><g clip-path="url(#ey)"><path d="M499.08,121.26l-.05-.05h0l-7.68,7.06h0l0,0c6.92.35,7.68-7.06,7.68-7.06" fill="#054723"/></g></g><path d="M491.37,112.71s5.16,5.74,0,10h-.08c-5.16-4.25,0-10,0-10" fill="#10663b"/><g opacity="0.5"><g clip-path="url(#ez)"><path d="M491.47,112.71h-.07v10h.07c5.16-4.25,0-10,0-10" fill="#054723"/></g></g><path d="M483.8,121.19s.76,7.41,7.68,7.06l0,0c.38-6.37-7.68-7.07-7.68-7.07" fill="#24963d"/><g opacity="0.5"><g clip-path="url(#fa)"><path d="M483.72,121.26l0-.05h0l7.67,7.06h0l-.05,0c-6.92.35-7.68-7.06-7.68-7.06" fill="#054723"/></g></g><g opacity="0.2"><g clip-path="url(#fb)"><g clip-path="url(#fc)"><g mask="url(#fd)"><rect x="30.02" y="117.69" width="15.8" height="8.81" transform="translate(-26.17 11.47) rotate(-12.83)" fill="url(#fe)"/></g></g></g></g><g opacity="0.2"><g clip-path="url(#ff)"><path d="M40.25,117.12v.08a.17.17,0,0,0,0-.08"/><path d="M39.14,121.93a0,0,0,0,0,0,0l.06-.15v0l.06-.15v0l.05-.14,0,0a.78.78,0,0,1,0-.14v0s0-.09,0-.13,0,0,0-.05a.65.65,0,0,0,0-.13l0,0a.65.65,0,0,1,0-.13v-.05s0-.09,0-.13a.43.43,0,0,1,0,0s0-.09,0-.13v0a.5.5,0,0,1,0-.13v0l0-.14s0,0,0,0,0-.11,0-.17h0a21.49,21.49,0,0,0,.43-2.55c0,.21-.29.91-1.83,2.64a8.47,8.47,0,0,0-1.74,3.28v-7a2.83,2.83,0,0,0,1.25-.49,3.16,3.16,0,0,0,1.62-2.28,6.3,6.3,0,0,0-.62-4.16,9.22,9.22,0,0,0-.68.75l-.35-.27H34.73c-.09.07-.18.13-.27.21a6.77,6.77,0,0,0-.63-.69,6.3,6.3,0,0,0-.62,4.16A3.25,3.25,0,0,0,34,115a3,3,0,0,0,2.11,1.11v7a6.65,6.65,0,0,0-1.63-2.47c-1.54-1.46-1.79-2-1.83-2.22a15.27,15.27,0,0,0,.43,2.14h0a.57.57,0,0,0,0,.14v0l0,.12v0s0,.07,0,.11,0,0,0,0a.49.49,0,0,0,0,.11v0a.36.36,0,0,0,0,.11v.05l0,.1,0,0a.76.76,0,0,0,0,.11v0a1.17,1.17,0,0,1,0,.11v0a1.17,1.17,0,0,0,0,.11v0l.06.12v0a.61.61,0,0,1,.05.12l0,0,.06.13v0l.06.13h0l.08.15a4.67,4.67,0,0,0,1.58,1.82h0l.14.08.14.08h0a3.16,3.16,0,0,0,.54.2V125l.11,0,.14,0v-.07a2.66,2.66,0,0,0,.39-.16l.15-.08h0l.14-.09h0l.13-.1a5.63,5.63,0,0,0,1.67-2.34h0a1.22,1.22,0,0,0,.07-.17"/><path d="M32.68,118.44v-.06a.09.09,0,0,0,0,.06"/></g></g><rect x="36.01" y="115" width="0.36" height="9.76" fill="#6f9e44"/><rect x="35.83" y="115" width="0.36" height="9.76" fill="#88bc51"/><path d="M36,125a9.29,9.29,0,0,1,2.08-5.11c1.91-2.16,1.83-2.72,1.83-2.72S39.38,124.23,36,125" fill="#88bc51"/><path d="M38.43,121.68a22.83,22.83,0,0,0-1.37,2.14c-.08.16-.16.31-.23.47l-.07.16-.09.27c1.57-.8,2.41-3.11,2.84-5a11.94,11.94,0,0,1-1.08,1.93" fill="#78ad3b"/><path d="M36.28,125a7.1,7.1,0,0,0-2.08-4.29c-1.92-1.81-1.84-2.28-1.84-2.28s.57,6,3.92,6.57" fill="#88bc51"/><path d="M33.88,122.21A21.21,21.21,0,0,1,35.25,124c.08.13.16.26.23.4a.69.69,0,0,1,.06.13,1,1,0,0,1,.09.22c-1.56-.67-2.4-2.61-2.83-4.17a8.52,8.52,0,0,0,1.08,1.63" fill="#78ad3b"/><path d="M37.71,109.68H34.54a3.58,3.58,0,0,0-1.52,3,3.31,3.31,0,0,0,3.11,3.48,3.31,3.31,0,0,0,3.1-3.48,3.58,3.58,0,0,0-1.52-3" fill="#eda72b"/><path d="M33.64,109.2a6.3,6.3,0,0,0-.62,4.16,3.58,3.58,0,0,0,3.11,2.79,8.88,8.88,0,0,0-2.49-7" fill="#f7c154"/><path d="M38.74,109.2a6.3,6.3,0,0,1,.62,4.16,3.57,3.57,0,0,1-3.1,2.79,8.89,8.89,0,0,1,2.48-7" fill="#f7c154"/><g opacity="0.2"><g clip-path="url(#fg)"><g clip-path="url(#fh)"><g mask="url(#fi)"><rect x="366.24" y="123.83" width="15.8" height="8.81" transform="translate(-19.14 86.29) rotate(-12.83)" fill="url(#fj)"/></g></g></g></g><g opacity="0.2"><g clip-path="url(#fk)"><path d="M376.47,123.27a.42.42,0,0,1,0,.07.42.42,0,0,0,0-.07"/><path d="M375.36,128.08v0l.06-.15v0l.06-.15a.08.08,0,0,1,0,0s0-.09.05-.14l0,0s0-.09,0-.14,0,0,0,0,0-.09,0-.14,0,0,0-.05a.93.93,0,0,1,0-.13.43.43,0,0,0,0,0l0-.13,0,0,0-.13s0,0,0,0l0-.13,0,0,0-.13v0s0-.1,0-.14v0l0-.17h0a18.52,18.52,0,0,0,.42-2.55c0,.21-.29.91-1.83,2.64a8.41,8.41,0,0,0-1.73,3.29v-7a2.9,2.9,0,0,0,1.24-.48,3.15,3.15,0,0,0,1.62-2.29,6.28,6.28,0,0,0-.61-4.16,8,8,0,0,0-.69.76,2.88,2.88,0,0,0-.34-.27h-3.18l-.26.2q-.29-.34-.63-.69a6.32,6.32,0,0,0-.62,4.16,3.1,3.1,0,0,0,.82,1.67,3,3,0,0,0,2.11,1.12v7a6.68,6.68,0,0,0-1.63-2.48c-1.54-1.45-1.79-2-1.83-2.22a14.18,14.18,0,0,0,.42,2.14h0a.57.57,0,0,1,0,.14v0s0,.07,0,.11,0,0,0,0l0,.11,0,0,0,.1,0,0,0,.1,0,.05a.76.76,0,0,0,0,.11v0a.49.49,0,0,1,0,.11s0,0,0,0,0,.08,0,.11,0,0,0,0a.61.61,0,0,0,.05.12v0l.05.12,0,0a.69.69,0,0,0,.05.13v0l.06.13v0c0,.05.05.09.07.14h0l.07.14a4.81,4.81,0,0,0,1.59,1.83l.14.08h0l.14.07h0a3.16,3.16,0,0,0,.54.2.28.28,0,0,0,0,.06l.12,0,.14,0V131a2,2,0,0,0,.4-.16l.14-.08h0l.14-.09h0l.14-.09a5.72,5.72,0,0,0,1.66-2.35h0a.77.77,0,0,1,.07-.16"/><path d="M368.9,124.58a.28.28,0,0,1,0-.06.28.28,0,0,0,0,.06"/></g></g><rect x="372.23" y="121.14" width="0.36" height="9.76" fill="#6f9e44"/><rect x="372.05" y="121.14" width="0.36" height="9.76" fill="#88bc51"/><path d="M372.24,131.09a9.41,9.41,0,0,1,2.08-5.11c1.92-2.15,1.84-2.71,1.84-2.71s-.57,7.1-3.92,7.82" fill="#88bc51"/><path d="M374.65,127.82a24.48,24.48,0,0,0-1.38,2.15l-.23.46-.06.16-.09.27c1.56-.8,2.4-3.11,2.84-5a11.15,11.15,0,0,1-1.08,1.93" fill="#78ad3b"/><path d="M372.5,131.09a7.17,7.17,0,0,0-2.08-4.29c-1.92-1.81-1.84-2.28-1.84-2.28s.57,6,3.92,6.57" fill="#88bc51"/><path d="M370.09,128.35a19.42,19.42,0,0,1,1.37,1.8c.09.13.16.26.24.39a.53.53,0,0,0,.06.13l.09.23c-1.56-.68-2.4-2.61-2.84-4.18a9.58,9.58,0,0,0,1.08,1.63" fill="#78ad3b"/><path d="M373.93,115.83h-3.18a3.57,3.57,0,0,0-1.51,3,3.12,3.12,0,1,0,6.2,0,3.55,3.55,0,0,0-1.51-3" fill="#eda72b"/><path d="M369.86,115.34a6.32,6.32,0,0,0-.62,4.16,3.57,3.57,0,0,0,3.1,2.79,8.89,8.89,0,0,0-2.48-7" fill="#f7c154"/><path d="M375,115.34a6.28,6.28,0,0,1,.61,4.16,3.57,3.57,0,0,1-3.1,2.79,8.88,8.88,0,0,1,2.49-7" fill="#f7c154"/><g opacity="0.2"><g clip-path="url(#fl)"><g clip-path="url(#fm)"><g mask="url(#fn)"><rect x="359.24" y="138.83" width="15.8" height="8.81" transform="translate(-22.64 85.11) rotate(-12.83)" fill="url(#fo)"/></g></g></g></g><g opacity="0.2"><g clip-path="url(#fp)"><path d="M369.47,138.27a.42.42,0,0,1,0,.07.42.42,0,0,0,0-.07"/><path d="M368.36,143.08v0l.06-.15v0l.06-.15a.08.08,0,0,1,0,0s0-.09.05-.14l0,0s0-.09,0-.14l0,0s0-.09,0-.14,0,0,0-.05a.93.93,0,0,1,0-.13.43.43,0,0,0,0-.05l0-.13,0,0,0-.13s0,0,0,0l0-.13,0-.05,0-.13v0c0-.05,0-.1,0-.14v0l0-.17h0a18.52,18.52,0,0,0,.42-2.55c0,.21-.29.91-1.83,2.64a8.41,8.41,0,0,0-1.73,3.29v-7a2.9,2.9,0,0,0,1.24-.48,3.15,3.15,0,0,0,1.62-2.29,6.28,6.28,0,0,0-.61-4.16,8,8,0,0,0-.69.76,2.88,2.88,0,0,0-.34-.27h-3.18l-.26.2q-.29-.34-.63-.69a6.32,6.32,0,0,0-.62,4.16,3.1,3.1,0,0,0,.82,1.67,3,3,0,0,0,2.11,1.12v7a6.68,6.68,0,0,0-1.63-2.48c-1.54-1.45-1.79-2-1.83-2.22a14.18,14.18,0,0,0,.42,2.14h0a.57.57,0,0,1,0,.14v0s0,.07,0,.11,0,0,0,0l0,.11,0,.05,0,.1,0,.05,0,.1,0,0a.76.76,0,0,0,0,.11v0a.49.49,0,0,1,0,.11s0,0,0,0,0,.08,0,.11l0,0a.61.61,0,0,0,.05.12v0l.05.12,0,0a.69.69,0,0,0,.05.13v0l.06.13v0c0,.05.05.09.07.14h0l.07.14a4.81,4.81,0,0,0,1.59,1.83l.14.08h0l.14.07h0a3.16,3.16,0,0,0,.54.2.28.28,0,0,0,0,.06l.12,0,.14,0V146a2,2,0,0,0,.4-.16l.14-.08h0l.14-.09h0l.14-.09a5.72,5.72,0,0,0,1.66-2.35h0a.77.77,0,0,1,.07-.16"/><path d="M361.9,139.58a.28.28,0,0,1,0-.06.28.28,0,0,0,0,.06"/></g></g><rect x="365.23" y="136.14" width="0.36" height="9.76" fill="#6f9e44"/><rect x="365.05" y="136.14" width="0.36" height="9.76" fill="#88bc51"/><path d="M365.24,146.09a9.41,9.41,0,0,1,2.08-5.11c1.92-2.15,1.84-2.71,1.84-2.71s-.57,7.1-3.92,7.82" fill="#88bc51"/><path d="M367.65,142.82a24.48,24.48,0,0,0-1.38,2.15l-.23.46-.06.16-.09.27c1.56-.8,2.4-3.11,2.84-5a11.15,11.15,0,0,1-1.08,1.93" fill="#78ad3b"/><path d="M365.5,146.09a7.17,7.17,0,0,0-2.08-4.29c-1.92-1.81-1.84-2.28-1.84-2.28s.57,6,3.92,6.57" fill="#88bc51"/><path d="M363.09,143.35a19.42,19.42,0,0,1,1.37,1.8c.09.13.16.26.24.39a.53.53,0,0,0,.06.13l.09.23c-1.56-.68-2.4-2.61-2.84-4.18a9.58,9.58,0,0,0,1.08,1.63" fill="#78ad3b"/><path d="M366.93,130.83h-3.18a3.57,3.57,0,0,0-1.51,3,3.12,3.12,0,1,0,6.2,0,3.55,3.55,0,0,0-1.51-3" fill="#eda72b"/><path d="M362.86,130.34a6.32,6.32,0,0,0-.62,4.16,3.57,3.57,0,0,0,3.1,2.79,8.89,8.89,0,0,0-2.48-6.95" fill="#f7c154"/><path d="M368,130.34a6.28,6.28,0,0,1,.61,4.16,3.57,3.57,0,0,1-3.1,2.79,8.88,8.88,0,0,1,2.49-6.95" fill="#f7c154"/><g opacity="0.2"><g clip-path="url(#fq)"><g clip-path="url(#fr)"><g mask="url(#fs)"><rect x="374.97" y="150.85" width="15.8" height="8.81" transform="translate(-24.92 88.91) rotate(-12.83)" fill="url(#ft)"/></g></g></g></g><g opacity="0.2"><g clip-path="url(#fu)"><path d="M385.2,150.28a.28.28,0,0,0,0,.08.6.6,0,0,0,0-.08"/><path d="M384.08,155.09v0a.94.94,0,0,0,.06-.15l0,0s0-.09.05-.14l0,0a.78.78,0,0,1,.05-.14v0l.05-.14s0,0,0,0,0-.09.05-.13,0,0,0,0,0-.09.05-.13,0,0,0-.05l0-.13v-.05a.93.93,0,0,0,0-.13s0,0,0,0l0-.13a.11.11,0,0,0,0,0,.93.93,0,0,0,0-.13v-.05l0-.14v0l0-.17h0a21.49,21.49,0,0,0,.43-2.55c0,.2-.29.91-1.83,2.64a8.61,8.61,0,0,0-1.74,3.28v-7a2.66,2.66,0,0,0,1.25-.48,3.11,3.11,0,0,0,1.62-2.29,6.28,6.28,0,0,0-.62-4.15,7.81,7.81,0,0,0-.68.75,2.88,2.88,0,0,0-.34-.27h-3.18l-.27.21a6.77,6.77,0,0,0-.63-.69,6.24,6.24,0,0,0-.61,4.15,3.1,3.1,0,0,0,.82,1.68,3,3,0,0,0,2.11,1.11v7a6.81,6.81,0,0,0-1.64-2.47c-1.54-1.46-1.79-2-1.82-2.22a13.34,13.34,0,0,0,.42,2.14h0s0,.1,0,.14v0l0,.12s0,0,0,0l0,.11v0a.49.49,0,0,1,0,.11v0l0,.11a.08.08,0,0,0,0,0l0,.11,0,.05s0,.07,0,.11,0,0,0,0,0,.07,0,.11a.08.08,0,0,0,0,0s0,.07,0,.11l0,0a.61.61,0,0,0,.05.12v0l.06.12v0l.06.13v0a.83.83,0,0,0,.07.13h0l.08.15a4.78,4.78,0,0,0,1.59,1.82l.13.08h0l.14.08h0a3.5,3.5,0,0,0,.54.2v.06l.12,0,.13,0V158a2.78,2.78,0,0,0,.4-.16l.14-.08h0l.14-.09h0l.14-.1a5.71,5.71,0,0,0,1.66-2.34h0l.06-.17"/><path d="M377.63,151.6a.28.28,0,0,1,0-.06.28.28,0,0,0,0,.06"/></g></g><rect x="380.95" y="148.16" width="0.36" height="9.76" fill="#6f9e44"/><rect x="380.78" y="148.16" width="0.36" height="9.76" fill="#88bc51"/><path d="M381,158.11a9.29,9.29,0,0,1,2.08-5.11c1.92-2.16,1.83-2.72,1.83-2.72s-.56,7.11-3.91,7.83" fill="#88bc51"/><path d="M383.37,154.84A25.07,25.07,0,0,0,382,157c-.08.16-.16.31-.23.47l-.07.16-.09.27c1.57-.81,2.41-3.11,2.84-5a10.35,10.35,0,0,1-1.08,1.94" fill="#78ad3b"/><path d="M381.22,158.11a7.1,7.1,0,0,0-2.08-4.29c-1.91-1.81-1.83-2.28-1.83-2.28s.56,6,3.91,6.57" fill="#88bc51"/><path d="M378.82,155.36a21.35,21.35,0,0,1,1.37,1.8c.08.13.16.26.23.39l.07.14.09.22c-1.57-.67-2.41-2.61-2.84-4.17a9.14,9.14,0,0,0,1.08,1.62" fill="#78ad3b"/><path d="M382.66,142.84h-3.18a3.57,3.57,0,0,0-1.51,3,3.12,3.12,0,1,0,6.2,0,3.6,3.6,0,0,0-1.51-3" fill="#eda72b"/><path d="M378.58,142.36a6.24,6.24,0,0,0-.61,4.15,3.57,3.57,0,0,0,3.1,2.8,8.88,8.88,0,0,0-2.49-6.95" fill="#f7c154"/><path d="M383.68,142.36a6.28,6.28,0,0,1,.62,4.15,3.57,3.57,0,0,1-3.1,2.8,8.89,8.89,0,0,1,2.48-6.95" fill="#f7c154"/><g opacity="0.2"><g clip-path="url(#fv)"><g clip-path="url(#fw)"><g mask="url(#fx)"><rect x="154.06" y="112.63" width="32.44" height="12.06" transform="translate(-24.59 47.24) rotate(-14.74)" fill="url(#fy)"/></g></g></g></g><path d="M154,120.62h22.84s.83-10.29-11.32-10.7S154,120.62,154,120.62" fill="#c9c9c9"/><path d="M165.54,109.92c-.35,0-.69,0-1,0,2.59,2.66,4.68,6.62,6.23,10.71h6.11s.83-10.29-11.32-10.7" fill="#b2b2b2"/><g opacity="0.2"><g clip-path="url(#fz)"><g clip-path="url(#ga)"><g mask="url(#gb)"><rect x="480.25" y="149.13" width="27.66" height="10.28" transform="matrix(0.97, -0.25, 0.25, 0.97, -22.99, 130.82)" fill="url(#gc)"/></g></g></g></g><path d="M480.22,155.94H499.7s.7-8.78-9.65-9.13-9.83,9.13-9.83,9.13" fill="#c9c9c9"/><path d="M490.05,146.81h-.88a26.78,26.78,0,0,1,5.31,9.13h5.22s.7-8.78-9.65-9.13" fill="#b2b2b2"/><g opacity="0.2"><g clip-path="url(#gd)"><g clip-path="url(#ge)"><g mask="url(#gf)"><rect x="463" y="148.05" width="30.65" height="11.39" transform="translate(-23.38 126.79) rotate(-14.74)" fill="url(#gg)"/></g></g></g></g><path d="M463,155.59h21.59s.77-9.72-10.7-10.11S463,155.59,463,155.59" fill="#c9c9c9"/><path d="M473.85,145.48h-1a30,30,0,0,1,5.89,10.11h5.78s.78-9.72-10.7-10.11" fill="#b2b2b2"/><g opacity="0.2"><g clip-path="url(#gh)"><g clip-path="url(#gi)"><g mask="url(#gj)"><rect x="282.73" y="135.68" width="5" height="2.28" transform="translate(-17.26 44.22) rotate(-8.61)" fill="url(#gk)"/></g></g></g></g><path d="M286.48,134.71a2.65,2.65,0,1,1-2.65-2.64,2.64,2.64,0,0,1,2.65,2.64" fill="#ea7d1b"/><path d="M283.26,135a6,6,0,0,1-2,.5,2.65,2.65,0,1,0,4.59-2.43,7.18,7.18,0,0,1-2.63,1.93" fill="#dd690a"/><g opacity="0.2"><g clip-path="url(#gl)"><g clip-path="url(#gm)"><g mask="url(#gn)"><rect x="294.56" y="131.7" width="5" height="2.28" transform="translate(-16.53 45.95) rotate(-8.61)" fill="url(#go)"/></g></g></g></g><path d="M298.32,130.73a2.65,2.65,0,1,1-2.65-2.64,2.65,2.65,0,0,1,2.65,2.64" fill="#ea7d1b"/><path d="M295.09,131a5.66,5.66,0,0,1-1.95.49,2.65,2.65,0,0,0,5.18-.76,2.71,2.71,0,0,0-.59-1.66,7.13,7.13,0,0,1-2.64,1.93" fill="#dd690a"/><g opacity="0.2"><g clip-path="url(#gp)"><g clip-path="url(#gq)"><g mask="url(#gr)"><rect x="117.56" y="124.91" width="5" height="2.28" transform="translate(-17.51 19.39) rotate(-8.61)" fill="url(#gs)"/></g></g></g></g><path d="M121.32,124a2.65,2.65,0,1,1-2.65-2.65,2.65,2.65,0,0,1,2.65,2.65" fill="#ea7d1b"/><path d="M118.09,124.21a5.9,5.9,0,0,1-2,.5,2.65,2.65,0,1,0,4.6-2.42,7.11,7.11,0,0,1-2.64,1.92" fill="#dd690a"/><g opacity="0.2"><g clip-path="url(#gt)"><g clip-path="url(#gu)"><g mask="url(#gv)"><rect x="472.88" y="97.41" width="5" height="2.28" transform="translate(-9.39 72.25) rotate(-8.61)" fill="url(#gw)"/></g></g></g></g><path d="M476.64,96.45A2.65,2.65,0,1,1,474,93.8a2.65,2.65,0,0,1,2.65,2.65" fill="#ea7d1b"/><path d="M473.41,96.71a5.91,5.91,0,0,1-2,.5,2.64,2.64,0,1,0,4.59-2.42,7.11,7.11,0,0,1-2.64,1.92" fill="#dd690a"/><g opacity="0.2"><g clip-path="url(#gx)"><g clip-path="url(#gy)"><g mask="url(#gz)"><rect x="482.82" y="91.92" width="3.75" height="1.71" transform="translate(-8.43 73.58) rotate(-8.61)" fill="url(#ha)"/></g></g></g></g><path d="M485.64,91.2a2,2,0,1,1-2-2,2,2,0,0,1,2,2" fill="#ea7d1b"/><path d="M483.22,91.4a4.48,4.48,0,0,1-1.47.37,2,2,0,0,0,3.89-.57A2,2,0,0,0,485.2,90a5.49,5.49,0,0,1-2,1.45" fill="#dd690a"/><g opacity="0.2"><g clip-path="url(#hb)"><g clip-path="url(#hc)"><g mask="url(#hd)"><rect x="504.16" y="71.1" width="41.98" height="26.34" transform="translate(4.7 193.88) rotate(-21.01)" fill="url(#he)"/></g></g></g></g><path d="M522.26,61.92a7.76,7.76,0,0,0-7.07-7.72,7.76,7.76,0,1,0-15.51,0v.1a7.75,7.75,0,0,0-2.43,14.33,7.76,7.76,0,0,0,4.62,12.65l-.17.23h10.92l0-.13a7.75,7.75,0,0,0,5.68-12.68,7.77,7.77,0,0,0,4-6.79" fill="#1f8959"/><path d="M522.26,61.92a7.76,7.76,0,0,0-7.07-7.72,7.75,7.75,0,0,0-7.76-7.75h-.06V81.52h5.25l0-.13a7.75,7.75,0,0,0,5.68-12.68,7.77,7.77,0,0,0,4-6.79" fill="#0f705e"/><rect x="505.12" y="81.52" width="4.35" height="9.15" fill="#93473d"/><rect x="507.14" y="81.52" width="2.47" height="9.15" fill="#7a342e"/><path d="M501.18,63.81a2.25,2.25,0,1,1-2.25-2.24,2.25,2.25,0,0,1,2.25,2.24" fill="#ea7d1b"/><path d="M498.44,64a5.2,5.2,0,0,1-1.66.42,2.23,2.23,0,0,0,2.15,1.6,2.25,2.25,0,0,0,1.75-3.66A6.19,6.19,0,0,1,498.44,64" fill="#dd690a"/><path d="M514.63,63.46a2.25,2.25,0,1,1-2.25-2.25,2.25,2.25,0,0,1,2.25,2.25" fill="#ea7d1b"/><path d="M511.89,63.68a5,5,0,0,1-1.66.42,2.24,2.24,0,0,0,4.39-.64,2.21,2.21,0,0,0-.49-1.41,6.16,6.16,0,0,1-2.24,1.63" fill="#dd690a"/><path d="M516.65,75.2A2.25,2.25,0,1,1,514.41,73a2.24,2.24,0,0,1,2.24,2.25" fill="#ea7d1b"/><path d="M513.92,75.42a5,5,0,0,1-1.66.43,2.24,2.24,0,1,0,3.9-2.06,6,6,0,0,1-2.24,1.63" fill="#dd690a"/><path d="M505.08,74.55a2.25,2.25,0,1,1-2.24-2.25,2.24,2.24,0,0,1,2.24,2.25" fill="#ea7d1b"/><path d="M502.35,74.77a5,5,0,0,1-1.67.43,2.25,2.25,0,0,0,4.4-.65,2.21,2.21,0,0,0-.5-1.41,6,6,0,0,1-2.23,1.63" fill="#dd690a"/><path d="M510.7,54.15a2.25,2.25,0,1,1-2.25-2.25,2.24,2.24,0,0,1,2.25,2.25" fill="#ea7d1b"/><path d="M508,54.37a5,5,0,0,1-1.66.42,2.25,2.25,0,1,0,3.9-2A6.16,6.16,0,0,1,508,54.37" fill="#dd690a"/></g></g></g></svg>