<svg xmlns="http://www.w3.org/2000/svg" xmlns:xlink="http://www.w3.org/1999/xlink" viewBox="0 0 236.82 49.81" width="236.82" height="49.81"><defs><radialGradient id="a" cx="22.65" cy="11.07" r="10.98" gradientTransform="translate(-0.41 -1.87) scale(1 1.03)" gradientUnits="userSpaceOnUse"><stop offset="0.1" stop-color="#dadf00"/><stop offset="0.9" stop-color="#8dc21f"/><stop offset="1" stop-color="#aacc03"/></radialGradient><radialGradient id="b" cx="317.52" cy="707.58" r="8.01" gradientTransform="translate(-824.43 -1980.31) scale(2.74 2.81)" xlink:href="#a"/></defs><title>img_logo_spot_partner</title><path d="M151.52,42.67a.49.49,0,0,1-.43.54.48.48,0,0,1-.5-.47.47.47,0,1,1,.93-.07" fill="#acd491"/><path d="M154.29,41.35a.47.47,0,1,1-.93.07.47.47,0,0,1,.43-.53.49.49,0,0,1,.5.46" fill="#acd491"/><path d="M150.12,34.43a3.54,3.54,0,0,0,0,2.37,9.13,9.13,0,0,1-1.26-5.51A5.16,5.16,0,0,1,150.6,28a3.18,3.18,0,0,1,2.29-.67A1.48,1.48,0,0,1,154,28a3.74,3.74,0,0,1,.41,2.44,11.64,11.64,0,0,1-.33,2.36,10.11,10.11,0,0,1,4.2-.62A3.57,3.57,0,0,1,161,33.65a2.28,2.28,0,0,1,.4,1.64,2.63,2.63,0,0,1-1,1.75,7.18,7.18,0,0,1-3.08,1.25,13.57,13.57,0,0,1-5-.12A3.12,3.12,0,0,0,154.5,37a1.24,1.24,0,0,0,.09-1.41,1.17,1.17,0,0,0-1.05-.4,2.66,2.66,0,0,0-1.28.51,2.91,2.91,0,0,0-.07-1.55.91.91,0,0,0-1.07-.67,1.27,1.27,0,0,0-1,.92" fill="#ed7959"/><path d="M154.89,40.93a4.24,4.24,0,0,0-2.6-1.73s4.21.27,6.38,2.29a3.76,3.76,0,0,1,1.23,2.43,2.41,2.41,0,0,1-.28,1.55,2,2,0,0,1-1.28.89,3.25,3.25,0,0,1-2.07-.17,7.33,7.33,0,0,1-2.92-2.11A10.85,10.85,0,0,1,152.4,48,4.07,4.07,0,0,1,151,49.44a2.6,2.6,0,0,1-2.31.18s-1.37-.51-1.41-2.72a8.61,8.61,0,0,1,1-3.93,12.54,12.54,0,0,1,1.92-3s-.87,2.89,0,3.81a1,1,0,0,0,.93.25s.86-.06,1.26-1.84c0,0,1.52.94,2.35,0a1.1,1.1,0,0,0,0-1.21" fill="#aacd2a"/><path d="M147.41,35.88a4.19,4.19,0,0,1,1.88,1.28s-1.83-3.47-4.12-4.31c-1.55-.58-2.7-.24-3.34.59a1.88,1.88,0,0,0-.3,1.52c.14.87.85,2,2.83,2.82a9.25,9.25,0,0,0-3.57,3.35c-.84,1.58-.71,2.93-.2,3.63a2.24,2.24,0,0,0,2.49.88,6.19,6.19,0,0,0,2.72-1.45A11.1,11.1,0,0,0,149.33,39s-1.37,1.88-3,1.73a1,1,0,0,1-.74-.41,1.06,1.06,0,0,1-.14-.81,2.56,2.56,0,0,1,1.5-1.44,2.5,2.5,0,0,1-.6-.61,1.16,1.16,0,0,1-.07-1.22s.26-.57,1.17-.38" fill="#a590b4"/><path d="M147.24,36.29l-.66.48a.22.22,0,0,0-.08.14.24.24,0,0,0,.05.14l.45.46a.19.19,0,0,0,.27,0,.24.24,0,0,0,0-.13.19.19,0,0,0,0-.13L147,37l.49-.36a.18.18,0,0,0,.08-.15.17.17,0,0,0,0-.11.19.19,0,0,0-.26,0" fill="#a590b4"/><path d="M146.5,38.9l-.55.6a.19.19,0,0,0,0,.26l.51.46a.18.18,0,0,0,.26,0,.18.18,0,0,0,.05-.12.2.2,0,0,0-.06-.14l-.37-.33.43-.47a.2.2,0,0,0,0-.13.2.2,0,0,0-.06-.14.18.18,0,0,0-.26,0" fill="#a590b4"/><path d="M153.21,35.78a.18.18,0,0,0,.18.19.45.45,0,0,1,.35.23.47.47,0,0,1,0,.44.19.19,0,0,0,0,.26.2.2,0,0,0,.26,0,.85.85,0,0,0-.68-1.25.18.18,0,0,0-.18.18" fill="#ed7959"/><path d="M150.57,34.31a.18.18,0,0,0,.25.27.45.45,0,0,1,.75.17.18.18,0,0,0,.23.12.19.19,0,0,0,.12-.24.79.79,0,0,0-.63-.55.82.82,0,0,0-.72.23" fill="#ed7959"/><path d="M172.68,38.05l-1.49,0-.12,0s0,0,0,.09l0,2.47c0,.35,0,.65,0,.87s0,.44,0,.64h-1.16c0-.36,0-2.51.07-6.47,0-.43,0-1.11-.08-2h1.18c0,.41,0,1.43,0,3.08,0,.06,0,.1.06.11l.09,0h.71l.78,0ZM168,37.49a1.66,1.66,0,0,0-.42-1.17,1.37,1.37,0,0,0-2.08,0,1.78,1.78,0,0,0,0,2.32,1.37,1.37,0,0,0,2.08,0,1.63,1.63,0,0,0,.44-1.15m1.07,0a2.9,2.9,0,0,1-.76,2,2.38,2.38,0,0,1-1.8.81,2.34,2.34,0,0,1-1.79-.85,3,3,0,0,1,0-4,2.36,2.36,0,0,1,3.59,0,2.87,2.87,0,0,1,.72,2" fill="#323333"/><path d="M181.09,42.23h-1.16q0-.54.06-6.21c0-.44,0-1.2-.09-2.29h1.21l-.07,7c0,.36,0,.65,0,.88s0,.44,0,.64m-3.32-4.64a1.71,1.71,0,0,0-.42-1.16,1.39,1.39,0,0,0-1-.49,1.35,1.35,0,0,0-1,.47,1.78,1.78,0,0,0,0,2.31,1.35,1.35,0,0,0,1,.49,1.38,1.38,0,0,0,1-.46,1.73,1.73,0,0,0,.45-1.16m1,0a2.85,2.85,0,0,1-.75,2,2.37,2.37,0,0,1-3.59,0,2.9,2.9,0,0,1-.71-2,2.86,2.86,0,0,1,.76-2,2.35,2.35,0,0,1,3.58,0,2.92,2.92,0,0,1,.71,2" fill="#323333"/><path d="M188.29,45.53l-1-.07-3.93,0,0-3,3.7,0a.23.23,0,0,0,.11,0,.12.12,0,0,0,0-.11v-.48c0-.07,0-.11,0-.13a.19.19,0,0,0-.11,0l-3.71,0V40.46c.54,0,1,.07,1.42.07l3.48,0,0,3-3.7,0a.21.21,0,0,0-.12,0,.19.19,0,0,0,0,.13v.46a.17.17,0,0,0,0,.12l.13,0,3.68,0Zm.19-7.76-1.08-.06-4-.05,0-3.88,3.66,0c.4,0,.88,0,1.41,0v1.15l-3.83,0a.19.19,0,0,0-.15,0,.18.18,0,0,0,0,.14l0,1.38a.1.1,0,0,0,.06.1l.14,0,3.82,0Zm1.32,2-6.14-.06-.67,0a9.35,9.35,0,0,0-1,.09V38.59l6.76.07c.17,0,.5,0,1-.07Z" fill="#323333"/><path d="M199.61,38.13l-1.48,0a.23.23,0,0,0-.13,0s0,0,0,.11q0,.36,0,2.49c0,.36,0,.65,0,.87s0,.45,0,.64h-1.16c0-.14,0-.33,0-.58V41a.33.33,0,0,0,0-.22s-.07-.07-.15-.09l-4.06,0c-.3,0-.89,0-1.75.1V39.45h1.31c.09,0,.14,0,.16-.05a.18.18,0,0,0,0-.13v-.74a8.2,8.2,0,0,0-.09-1.34h1.2l0,2.08a.21.21,0,0,0,0,.15.16.16,0,0,0,.12,0h1.15a.17.17,0,0,0,.13,0,.26.26,0,0,0,0-.14L195,36a.17.17,0,0,0,0-.14.21.21,0,0,0-.12,0l-3.3,0V34.53c.63,0,1.16.06,1.59.07l3,0c0,2.93-.05,4.48-.05,4.68a.17.17,0,0,0,.05.15.14.14,0,0,0,.1,0h.49c.07,0,.12,0,.14-.06a.35.35,0,0,0,0-.12c0-.2,0-1.41,0-3.61,0-.51,0-1.16-.06-2H198c0,.41,0,1,0,1.66s0,1.14,0,1.33,0,.12.06.14a.28.28,0,0,0,.13,0h.68l.77,0Z" fill="#323333"/><path d="M234,41c0,.23,0,.42,0,.67v.58h1.16c0-.2,0-.41,0-.64s0-.47,0-.83c0-1.42,0-2.48,0-2.72a.17.17,0,0,1,0-.12l.13,0h1.47l0-1.23-.77,0h-.69a.27.27,0,0,1-.12,0,.16.16,0,0,1-.06-.14c0-.19,0-.64,0-1.34s0-1,0-1.45H234a14.75,14.75,0,0,1,.06,1.77c0,2.2,0,5,0,5.23Z" fill="#323333"/><path d="M208.22,42.18h-1.16q0-.54,0-3.06c0-1.69,0-2.78,0-3.29s0-1.15-.06-2.15h1.17q0,1.29-.07,7c0,.36,0,.65,0,.88s0,.44.05.64M204.67,39q0-2.74,0-2.91a.49.49,0,0,0,0-.15.14.14,0,0,0-.13,0l-2,0c-.06,0-.1,0-.12,0a.29.29,0,0,0,0,.14c0,.15,0,.65,0,1.5s0,1.32,0,1.42a.19.19,0,0,0,0,.09.16.16,0,0,0,.11,0l2,0c.07,0,.12,0,.13,0a.46.46,0,0,0,0-.09m1.09,1.37-.73-.06q-.33,0-.75,0l-3,0,.06-5.6c.75.05,1.29.07,1.62.07l2.87,0Z" fill="#323333"/><path d="M217.7,42.26h-1.16c0-.28,0-.75,0-1.43s0-1.52,0-2.53c0,0,0-.07,0-.1s0,0-.08,0h-.71s-.07,0-.08,0a.18.18,0,0,0,0,.11q0,.6,0,2.43c0,.35,0,.65,0,.87s0,.44,0,.64h-1.16c0-.2,0-.66,0-1.4a.21.21,0,0,0-.09-.19.38.38,0,0,0-.19-.06l-4.5,0,0-3.49,2.64,0,.12,0a.24.24,0,0,0,0-.12V36.2a.28.28,0,0,0,0-.15.2.2,0,0,0-.13,0l-2.63,0V34.73a14.42,14.42,0,0,0,1.46.11l2.43,0,0,3.37-2.64,0a.14.14,0,0,0-.12.06.32.32,0,0,0,0,.19v.78a.17.17,0,0,0,0,.12.16.16,0,0,0,.11,0l3.25,0,.18-.06a.17.17,0,0,0,.12-.17c0-2.08,0-3.22,0-3.43,0-.44,0-1.11,0-2l1.17,0,0,3.08a.19.19,0,0,0,0,.09s0,0,.05,0h.72a.09.09,0,0,0,.07,0,.2.2,0,0,0,0-.09c0-.12,0-.3,0-.54v-.53c0-.43,0-1.11,0-2l1.17,0-.07,7c0,.35,0,.65,0,.87s0,.44,0,.64" fill="#323333"/><path d="M229.55,41.45v3.88l5.59,0V44.21l-4.34,0a.16.16,0,0,1-.11,0,.17.17,0,0,1,0-.12V41.45Z" fill="#323333"/><path d="M227,42.26h-1.16c0-.28,0-.75,0-1.43s0-1.52,0-2.53a.31.31,0,0,0,0-.1s0,0-.08,0h-.71s-.07,0-.08,0a.31.31,0,0,0,0,.11q0,.6,0,2.43c0,.35,0,.65,0,.87s0,.44,0,.64h-1.16c0-.2,0-.66,0-1.4l0-1.64c0-2.08,0-3.22,0-3.43,0-.44,0-1.11-.06-2l1.17,0,0,3.08a.19.19,0,0,0,0,.09s0,0,.05,0h.72a.09.09,0,0,0,.07,0,.2.2,0,0,0,0-.09c0-.12,0-.3,0-.54s0-.42,0-.53c0-.43,0-1.11-.06-2l1.17,0-.07,7c0,.35,0,.65,0,.87s0,.44,0,.64" fill="#323333"/><path d="M220.41,35.92v.37a5.2,5.2,0,0,1-.31,1.87A5.5,5.5,0,0,1,218.61,40l.75.74a5.86,5.86,0,0,0,1.12-1.1,5.78,5.78,0,0,0,.59-.86,4.77,4.77,0,0,0,.58.83,4.61,4.61,0,0,0,1.06,1l.62-.74A5.44,5.44,0,0,1,222,38.22a5,5,0,0,1-.36-1.95v-.35h1.29V34.85h-3.84v1.07Z" fill="#323333"/><polygon points="228.3 34.85 232.82 34.85 232.82 35.89 229.44 35.89 229.44 39.17 232.82 39.17 232.82 40.25 228.3 40.25 228.3 34.85" fill="#323333"/><text transform="translate(121 42)" opacity="0.8" font-size="18" fill="#1a1a18" font-family="ArialMT, Arial" style="isolation:isolate">x</text><path d="M30,9.89c2.1,3.15,3,3.61,3,3.61s-.92.47-3,3.61a6.57,6.57,0,0,1-5.51,3.15c-3.74,0-6.31-2.84-6.31-6.76s2.57-6.75,6.31-6.75A6.59,6.59,0,0,1,30,9.89Z" fill="url(#a)"/><path d="M39.09,6.28c-4.2,6.29-6,7.22-6,7.22s1.83.94,6,7.22c2.57,3.84,6.4,6.29,11,6.29,7.48,0,12.63-5.67,12.63-13.51S57.59,0,50.11,0C45.49,0,41.66,2.45,39.09,6.28Z" fill="url(#b)"/><path d="M0,24.75H4.62V39.22h9.45v3.52H3a3,3,0,0,1-3-3.06Z" fill="#0055a2"/><path d="M28.43,24.75v7H21.18v-7H16.55v18h4.63V34.18a2.93,2.93,0,0,0,2.3,1.11h4.95v7.45h4.63v-18Z" fill="#0055a2"/><path d="M48.9,33.73v2.2h1.34v.81H48.9v3.44H47.65V33.73Z" fill="#727171"/><path d="M85,38.89v.8H81.38V42.8H80.13V39.69H76.57v-.8Z" fill="#727171"/><path d="M46.68,34.43H44.84v-.89H43.59v.89h-2v.8H42.9l-.1.07a2,2,0,0,0-.87,1.58,2.23,2.23,0,0,0,4.45,0,2,2,0,0,0-.85-1.58l-.1-.07h1.25Zm-2.52,3.7a1.25,1.25,0,0,1,0-2.48,1.19,1.19,0,0,1,1.11,1.24A1.21,1.21,0,0,1,44.16,38.13Z" fill="#727171"/><path d="M98.62,39a2.32,2.32,0,0,0-2.51,2,2.57,2.57,0,0,0,5,0A2.29,2.29,0,0,0,98.62,39Zm0,3.24a1.23,1.23,0,1,1,0-2.46A1.29,1.29,0,0,1,99.94,41,1.31,1.31,0,0,1,98.62,42.22Z" fill="#727171"/><path d="M75.57,33.73V42.8H74.32V33.73Z" fill="#727171"/><path d="M110.66,33.73v2.76H112v.81h-1.34v5.5h-1.25V33.73Z" fill="#727171"/><path d="M44.35,39.77v2.14h4.71v.8H44c-.66,0-.92-.24-.92-.83V39.77Z" fill="#727171"/><path d="M55.89,37.28a2.17,2.17,0,0,0,.4-1.41V34.68H51.42v-.8h5.2c.66,0,.93.24.93.83v1a1.85,1.85,0,0,1-.61,1.53h1.57v.8H55.1v1.51h1.5c.65,0,.92.24.92.83V42.8H56.27V40.39H51.39v-.8h2.46V38.08H50.51v-.8Z" fill="#727171"/><path d="M101,37.73h1.77v.81H94.44v-.81H97.5V36.2h1.25v1.53H100a2.44,2.44,0,0,0,.44-1.46v-1.6h-5v-.8h5.28c.65,0,.92.24.92.83v1.45A2,2,0,0,1,101,37.73Z" fill="#727171"/><path d="M92.47,39.59c.66,0,.92.24.92.83V42.8H92.15V40.39H87v-.8Z" fill="#727171"/><path d="M60.27,38.46V34.91c0-.59.27-.83.92-.83h5.25v.81H61.52v1.38h4.67v.8H61.52v1.42h5v.8H64V41h3.56v.81H59.14V41H62.7V39.29H61.19C60.54,39.29,60.27,39.05,60.27,38.46Z" fill="#727171"/><path d="M93.39,33.73v5.09H92.22V36.34h-.8v2.48H90.25V38l-.07.08a3,3,0,0,1-1.66.43H86.79c-.66,0-.92-.23-.92-.82v-2.9c0-.59.26-.83.92-.83h2.54v.81H87.09v1h2.07v.81H87.09v1.1h1.79a2.77,2.77,0,0,0,1.35-.31h0V33.73h1.17v1.93h.8V33.73Z" fill="#727171"/><path d="M70.72,38a4,4,0,0,1-2.33,2.18l-.5-.63a3.81,3.81,0,0,0,2.2-3.66v-1H68.34v-.8H73.1v.8H71.36v1a3.81,3.81,0,0,0,2.2,3.66l-.5.63A4,4,0,0,1,70.72,38Z" fill="#727171"/><path d="M80.76,36.41s-.55,1.29-3.24,1.74l-.4-.7c1.41-.27,3-1.16,3-2.65v-.1H77.5v-.81H84v.81H81.39v.1c0,1.49,1.59,2.38,3,2.65l-.39.7C81.31,37.7,80.76,36.41,80.76,36.41Z" fill="#727171"/><path d="M106.6,36a3.54,3.54,0,0,0,2.2,3.57l-.5.63a3.59,3.59,0,0,1-2.33-2,3.6,3.6,0,0,1-2.34,2s-.44-.57-.5-.63a3.52,3.52,0,0,0,2.2-3.57v-2h1.27Z" fill="#727171"/></svg>